<svg xmlns="http://www.w3.org/2000/svg" width="624" height="400.4" viewBox="0 0 624 400.4">
  <rect width="100%" height="100%" fill="#FFFFFF"/>
  <text x="178" y="32" text-anchor="middle" font-family="'DejaVu Sans', sans-serif" font-weight="bold" font-size="14" fill="#111">CURRENT: 12-Lane Isometric</text>
  <text x="178" y="52" text-anchor="middle" font-family="'DejaVu Sans', sans-serif" font-size="11" fill="#666">12 semitones = 72 pt / octave (No compression)</text>
  <text x="480" y="32" text-anchor="middle" font-family="'DejaVu Sans', sans-serif" font-weight="bold" font-size="14" fill="#007700">6-LANE FOLDED (Hypothetical)</text>
  <text x="480" y="52" text-anchor="middle" font-family="'DejaVu Sans', sans-serif" font-size="11" fill="#007700" font-weight="bold">6 lanes = 36 pt / octave (50% narrower!)</text>
  <line x1="70" y1="80" x2="70" y2="310.4" stroke="#111111" stroke-width="1.2"/>
  <text x="70" y="70" text-anchor="middle" font-family="'DejaVu Sans Mono', monospace" font-size="10" font-weight="bold" fill="#111">m</text>
  <line x1="94" y1="80" x2="94" y2="310.4" stroke="#666666" stroke-width="0.7" stroke-dasharray="6,3"/>
  <text x="94" y="70" text-anchor="middle" font-family="'DejaVu Sans Mono', monospace" font-size="9" fill="#555">5</text>
  <line x1="142" y1="80" x2="142" y2="310.4" stroke="#111111" stroke-width="1.2"/>
  <text x="142" y="70" text-anchor="middle" font-family="'DejaVu Sans Mono', monospace" font-size="10" font-weight="bold" fill="#111">m</text>
  <line x1="166" y1="80" x2="166" y2="310.4" stroke="#666666" stroke-width="0.7" stroke-dasharray="6,3"/>
  <text x="166" y="70" text-anchor="middle" font-family="'DejaVu Sans Mono', monospace" font-size="9" fill="#555">5</text>
  <line x1="214" y1="80" x2="214" y2="310.4" stroke="#111111" stroke-width="1.2"/>
  <text x="214" y="70" text-anchor="middle" font-family="'DejaVu Sans Mono', monospace" font-size="10" font-weight="bold" fill="#111">m</text>
  <line x1="238" y1="80" x2="238" y2="310.4" stroke="#666666" stroke-width="0.7" stroke-dasharray="6,3"/>
  <text x="238" y="70" text-anchor="middle" font-family="'DejaVu Sans Mono', monospace" font-size="9" fill="#555">5</text>
  <line x1="286" y1="80" x2="286" y2="310.4" stroke="#111111" stroke-width="1.2"/>
  <text x="286" y="70" text-anchor="middle" font-family="'DejaVu Sans Mono', monospace" font-size="10" font-weight="bold" fill="#111">m</text>
  <line x1="426" y1="80" x2="426" y2="310.4" stroke="#111111" stroke-width="1.2"/>
  <text x="426" y="70" text-anchor="middle" font-family="'DejaVu Sans Mono', monospace" font-size="10" font-weight="bold" fill="#111">m</text>
  <line x1="438" y1="80" x2="438" y2="310.4" stroke="#666666" stroke-width="0.7" stroke-dasharray="6,3"/>
  <text x="438" y="70" text-anchor="middle" font-family="'DejaVu Sans Mono', monospace" font-size="9" fill="#555">5</text>
  <line x1="462" y1="80" x2="462" y2="310.4" stroke="#111111" stroke-width="1.2"/>
  <text x="462" y="70" text-anchor="middle" font-family="'DejaVu Sans Mono', monospace" font-size="10" font-weight="bold" fill="#111">m</text>
  <line x1="474" y1="80" x2="474" y2="310.4" stroke="#666666" stroke-width="0.7" stroke-dasharray="6,3"/>
  <text x="474" y="70" text-anchor="middle" font-family="'DejaVu Sans Mono', monospace" font-size="9" fill="#555">5</text>
  <line x1="498" y1="80" x2="498" y2="310.4" stroke="#111111" stroke-width="1.2"/>
  <text x="498" y="70" text-anchor="middle" font-family="'DejaVu Sans Mono', monospace" font-size="10" font-weight="bold" fill="#111">m</text>
  <line x1="510" y1="80" x2="510" y2="310.4" stroke="#666666" stroke-width="0.7" stroke-dasharray="6,3"/>
  <text x="510" y="70" text-anchor="middle" font-family="'DejaVu Sans Mono', monospace" font-size="9" fill="#555">5</text>
  <line x1="534" y1="80" x2="534" y2="310.4" stroke="#111111" stroke-width="1.2"/>
  <text x="534" y="70" text-anchor="middle" font-family="'DejaVu Sans Mono', monospace" font-size="10" font-weight="bold" fill="#111">m</text>
  <line x1="52" y1="80" x2="304" y2="80" stroke="#222" stroke-width="0.8"/>
  <text x="46" y="84" text-anchor="end" font-family="'DejaVu Sans Mono', monospace" font-size="10" font-weight="bold">1</text>
  <line x1="408" y1="80" x2="552" y2="80" stroke="#222" stroke-width="0.8"/>
  <text x="402" y="84" text-anchor="end" font-family="'DejaVu Sans Mono', monospace" font-size="10" font-weight="bold">1</text>
  <line x1="52" y1="195.2" x2="304" y2="195.2" stroke="#222" stroke-width="0.8"/>
  <text x="46" y="199.2" text-anchor="end" font-family="'DejaVu Sans Mono', monospace" font-size="10" font-weight="bold">2</text>
  <line x1="408" y1="195.2" x2="552" y2="195.2" stroke="#222" stroke-width="0.8"/>
  <text x="402" y="199.2" text-anchor="end" font-family="'DejaVu Sans Mono', monospace" font-size="10" font-weight="bold">2</text>
  <line x1="52" y1="310.4" x2="304" y2="310.4" stroke="#222" stroke-width="0.8"/>
  <text x="46" y="314.4" text-anchor="end" font-family="'DejaVu Sans Mono', monospace" font-size="10" font-weight="bold">3</text>
  <line x1="408" y1="310.4" x2="552" y2="310.4" stroke="#222" stroke-width="0.8"/>
  <text x="402" y="314.4" text-anchor="end" font-family="'DejaVu Sans Mono', monospace" font-size="10" font-weight="bold">3</text>
  <line x1="40" y1="80" x2="34" y2="80" stroke="#1D4ED8" stroke-width="1.0" stroke-linecap="round"/>
  <rect x="36.4" y="77.7" width="7.2" height="4.6" rx="1.0" fill="#1D4ED8"/>
  <line x1="408" y1="80" x2="402" y2="80" stroke="#1D4ED8" stroke-width="1.0" stroke-linecap="round"/>
  <rect x="404.4" y="77.7" width="7.2" height="4.6" rx="1.0" fill="#1D4ED8"/>
  <line x1="184" y1="80" x2="190" y2="80" stroke="#1E293B" stroke-width="1.0" stroke-linecap="round"/>
  <rect x="180.4" y="77.7" width="7.2" height="4.6" rx="1.0" fill="#1E293B"/>
  <line x1="480" y1="80" x2="486" y2="80" stroke="#1E293B" stroke-width="1.0" stroke-linecap="round"/>
  <rect x="476.4" y="77.7" width="7.2" height="4.6" rx="1.0" fill="#1E293B"/>
  <line x1="178" y1="108.8" x2="184" y2="108.8" stroke="#1E293B" stroke-width="1.0" stroke-linecap="round"/>
  <ellipse cx="178" cy="108.8" rx="4.2" ry="2.6" fill="#1E293B"/>
  <line x1="480" y1="108.8" x2="486" y2="108.8" stroke="#1E293B" stroke-width="1.0" stroke-linecap="round"/>
  <ellipse cx="480" cy="108.8" rx="4.2" ry="2.6" fill="#1E293B"/>
  <line x1="136" y1="137.6" x2="130" y2="137.6" stroke="#1E293B" stroke-width="1.0" stroke-linecap="round"/>
  <rect x="132.4" y="135.29999999999998" width="7.2" height="4.6" rx="1.0" fill="#1E293B"/>
  <line x1="456" y1="137.6" x2="450" y2="137.6" stroke="#1E293B" stroke-width="1.0" stroke-linecap="round"/>
  <rect x="452.4" y="135.29999999999998" width="7.2" height="4.6" rx="1.0" fill="#1E293B"/>
  <line x1="184" y1="137.6" x2="190" y2="137.6" stroke="#1D4ED8" stroke-width="1.0" stroke-linecap="round"/>
  <rect x="180.4" y="135.29999999999998" width="7.2" height="4.6" rx="1.0" fill="#1D4ED8"/>
  <line x1="480" y1="137.6" x2="486" y2="137.6" stroke="#1D4ED8" stroke-width="1.0" stroke-linecap="round"/>
  <rect x="476.4" y="135.29999999999998" width="7.2" height="4.6" rx="1.0" fill="#1D4ED8"/>
  <line x1="124" y1="166.39999999999998" x2="118" y2="166.39999999999998" stroke="#1E293B" stroke-width="1.0" stroke-linecap="round"/>
  <rect x="120.4" y="164.09999999999997" width="7.2" height="4.6" rx="1.0" fill="#1E293B"/>
  <line x1="450" y1="166.39999999999998" x2="444" y2="166.39999999999998" stroke="#1E293B" stroke-width="1.0" stroke-linecap="round"/>
  <rect x="446.4" y="164.09999999999997" width="7.2" height="4.6" rx="1.0" fill="#1E293B"/>
  <line x1="136" y1="195.2" x2="130" y2="195.2" stroke="#1D4ED8" stroke-width="1.0" stroke-linecap="round"/>
  <rect x="132.4" y="192.89999999999998" width="7.2" height="4.6" rx="1.0" fill="#1D4ED8"/>
  <line x1="456" y1="195.2" x2="450" y2="195.2" stroke="#1D4ED8" stroke-width="1.0" stroke-linecap="round"/>
  <rect x="452.4" y="192.89999999999998" width="7.2" height="4.6" rx="1.0" fill="#1D4ED8"/>
  <line x1="154" y1="224" x2="160" y2="224" stroke="#1E293B" stroke-width="1.0" stroke-linecap="round"/>
  <ellipse cx="154" cy="224" rx="4.2" ry="2.6" fill="#1E293B"/>
  <line x1="468" y1="224" x2="474" y2="224" stroke="#1E293B" stroke-width="1.0" stroke-linecap="round"/>
  <ellipse cx="468" cy="224" rx="4.2" ry="2.6" fill="#1E293B"/>
  <line x1="112" y1="252.79999999999998" x2="106" y2="252.79999999999998" stroke="#1D4ED8" stroke-width="1.0" stroke-linecap="round"/>
  <rect x="108.4" y="250.49999999999997" width="7.2" height="4.6" rx="1.0" fill="#1D4ED8"/>
  <line x1="444" y1="252.79999999999998" x2="438" y2="252.79999999999998" stroke="#1D4ED8" stroke-width="1.0" stroke-linecap="round"/>
  <rect x="440.4" y="250.49999999999997" width="7.2" height="4.6" rx="1.0" fill="#1D4ED8"/>
  <line x1="166" y1="252.79999999999998" x2="172" y2="252.79999999999998" stroke="#1E293B" stroke-width="1.0" stroke-linecap="round"/>
  <ellipse cx="166" cy="252.79999999999998" rx="4.2" ry="2.6" fill="#1E293B"/>
  <line x1="474" y1="252.79999999999998" x2="480" y2="252.79999999999998" stroke="#1E293B" stroke-width="1.0" stroke-linecap="round"/>
  <ellipse cx="474" cy="252.79999999999998" rx="4.2" ry="2.6" fill="#1E293B"/>
  <line x1="178" y1="281.6" x2="184" y2="281.6" stroke="#1E293B" stroke-width="1.0" stroke-linecap="round"/>
  <ellipse cx="178" cy="281.6" rx="4.2" ry="2.6" fill="#1E293B"/>
  <line x1="480" y1="281.6" x2="486" y2="281.6" stroke="#1E293B" stroke-width="1.0" stroke-linecap="round"/>
  <ellipse cx="480" cy="281.6" rx="4.2" ry="2.6" fill="#1E293B"/>
  <text x="312" y="350.4" text-anchor="middle" font-family="'DejaVu Sans', sans-serif" font-size="10" fill="#222">12-Lane layout preserves pure spatial isometry: every semitone step has identical horizontal slope.</text>
  <text x="312" y="368.4" text-anchor="middle" font-family="'DejaVu Sans', sans-serif" font-size="10" fill="#666">6-Lane cuts column width in half (fits 4 columns/page), but pairs notes (1-2, 3-4) onto the same lane.</text>
</svg>