<svg xmlns="http://www.w3.org/2000/svg" width="300" height="370.4" viewBox="0 0 300 370.4">
  <rect width="100%" height="100%" fill="#FFFFFF"/>
  <text x="150" y="28" text-anchor="middle" font-family="'DejaVu Sans', sans-serif" font-weight="bold" font-size="13" fill="#111">OPTION B: 3 Lines (1, 5, 9) Symmetric — 5 Dashed, 9 Straight</text>
  <text x="150" y="46" text-anchor="middle" font-family="'DejaVu Sans', sans-serif" font-size="10" fill="#555">1=Bold Octave, 5=Small Dashes, 9=Thin Straight (4-semitone symmetry) • Squares on 1/5/9</text>
  <line x1="60" y1="75" x2="60" y2="305.4" stroke="#111111" stroke-width="1.2"/>
  <text x="60" y="67" text-anchor="middle" font-family="'DejaVu Sans Mono', monospace" font-size="10" font-weight="bold" fill="#111">m2</text>
  <line x1="80" y1="75" x2="80" y2="305.4" stroke="#666666" stroke-width="0.6" stroke-dasharray="5,2.5"/>
  <text x="80" y="67" text-anchor="middle" font-family="'DejaVu Sans Mono', monospace" font-size="8" fill="#555">5</text>
  <line x1="100" y1="75" x2="100" y2="305.4" stroke="#555555" stroke-width="0.6"/>
  <text x="100" y="67" text-anchor="middle" font-family="'DejaVu Sans Mono', monospace" font-size="8" fill="#555">9</text>
  <line x1="120" y1="75" x2="120" y2="305.4" stroke="#111111" stroke-width="1.2"/>
  <text x="120" y="67" text-anchor="middle" font-family="'DejaVu Sans Mono', monospace" font-size="10" font-weight="bold" fill="#111">m3</text>
  <line x1="140" y1="75" x2="140" y2="305.4" stroke="#666666" stroke-width="0.6" stroke-dasharray="5,2.5"/>
  <text x="140" y="67" text-anchor="middle" font-family="'DejaVu Sans Mono', monospace" font-size="8" fill="#555">5</text>
  <line x1="160" y1="75" x2="160" y2="305.4" stroke="#555555" stroke-width="0.6"/>
  <text x="160" y="67" text-anchor="middle" font-family="'DejaVu Sans Mono', monospace" font-size="8" fill="#555">9</text>
  <line x1="180" y1="75" x2="180" y2="305.4" stroke="#111111" stroke-width="1.2"/>
  <text x="180" y="67" text-anchor="middle" font-family="'DejaVu Sans Mono', monospace" font-size="10" font-weight="bold" fill="#111">m4</text>
  <line x1="200" y1="75" x2="200" y2="305.4" stroke="#666666" stroke-width="0.6" stroke-dasharray="5,2.5"/>
  <text x="200" y="67" text-anchor="middle" font-family="'DejaVu Sans Mono', monospace" font-size="8" fill="#555">5</text>
  <line x1="220" y1="75" x2="220" y2="305.4" stroke="#555555" stroke-width="0.6"/>
  <text x="220" y="67" text-anchor="middle" font-family="'DejaVu Sans Mono', monospace" font-size="8" fill="#555">9</text>
  <line x1="240" y1="75" x2="240" y2="305.4" stroke="#111111" stroke-width="1.2"/>
  <text x="240" y="67" text-anchor="middle" font-family="'DejaVu Sans Mono', monospace" font-size="10" font-weight="bold" fill="#111">m5</text>
  <line x1="45" y1="75" x2="255" y2="75" stroke="#222" stroke-width="0.8"/>
  <text x="40" y="79" text-anchor="end" font-family="'DejaVu Sans Mono', monospace" font-size="10" font-weight="bold">1</text>
  <line x1="45" y1="190.2" x2="255" y2="190.2" stroke="#222" stroke-width="0.8"/>
  <text x="40" y="194.2" text-anchor="end" font-family="'DejaVu Sans Mono', monospace" font-size="10" font-weight="bold">2</text>
  <line x1="45" y1="305.4" x2="255" y2="305.4" stroke="#222" stroke-width="0.8"/>
  <text x="40" y="309.4" text-anchor="end" font-family="'DejaVu Sans Mono', monospace" font-size="10" font-weight="bold">3</text>
  <line x1="35" y1="75" x2="29.5" y2="75" stroke="#1D4ED8" stroke-width="1.0" stroke-linecap="round"/>
  <polygon points="35,68.2 29.7,78.4 40.3,78.4" fill="#FFFFFF"/>
  <polygon points="35,69.8 30.9,77.6 39.1,77.6" fill="#1D4ED8"/>
  <line x1="155" y1="75" x2="160.5" y2="75" stroke="#1E293B" stroke-width="1.0" stroke-linecap="round"/>
  <polygon points="155,68.2 149.7,78.4 160.3,78.4" fill="#FFFFFF"/>
  <polygon points="155,69.8 150.9,77.6 159.1,77.6" fill="#1E293B"/>
  <line x1="150" y1="103.8" x2="155.5" y2="103.8" stroke="#1E293B" stroke-width="1.0" stroke-linecap="round"/>
  <polygon points="150,97 144.7,107.2 155.3,107.2" fill="#FFFFFF"/>
  <polygon points="150,98.6 145.9,106.39999999999999 154.1,106.39999999999999" fill="#1E293B"/>
  <line x1="115" y1="132.6" x2="109.5" y2="132.6" stroke="#1E293B" stroke-width="1.0" stroke-linecap="round"/>
  <polygon points="115,125.8 109.7,136 120.3,136" fill="#FFFFFF"/>
  <polygon points="115,127.39999999999999 110.9,135.2 119.1,135.2" fill="#1E293B"/>
  <line x1="155" y1="132.6" x2="160.5" y2="132.6" stroke="#1D4ED8" stroke-width="1.0" stroke-linecap="round"/>
  <polygon points="155,125.8 149.7,136 160.3,136" fill="#FFFFFF"/>
  <polygon points="155,127.39999999999999 150.9,135.2 159.1,135.2" fill="#1D4ED8"/>
  <line x1="105" y1="161.39999999999998" x2="99.5" y2="161.39999999999998" stroke="#1E293B" stroke-width="1.0" stroke-linecap="round"/>
  <polygon points="105,154.59999999999997 99.7,164.79999999999998 110.3,164.79999999999998" fill="#FFFFFF"/>
  <polygon points="105,156.2 100.9,163.99999999999997 109.1,163.99999999999997" fill="#1E293B"/>
  <line x1="115" y1="190.2" x2="109.5" y2="190.2" stroke="#1D4ED8" stroke-width="1.0" stroke-linecap="round"/>
  <polygon points="115,183.39999999999998 109.7,193.6 120.3,193.6" fill="#FFFFFF"/>
  <polygon points="115,185 110.9,192.79999999999998 119.1,192.79999999999998" fill="#1D4ED8"/>
  <line x1="130" y1="219" x2="135.5" y2="219" stroke="#1E293B" stroke-width="1.0" stroke-linecap="round"/>
  <polygon points="130,212.2 124.7,222.4 135.3,222.4" fill="#FFFFFF"/>
  <polygon points="130,213.8 125.9,221.6 134.1,221.6" fill="#1E293B"/>
  <line x1="95" y1="247.79999999999998" x2="89.5" y2="247.79999999999998" stroke="#1D4ED8" stroke-width="1.0" stroke-linecap="round"/>
  <polygon points="95,240.99999999999997 89.7,251.2 100.3,251.2" fill="#FFFFFF"/>
  <polygon points="95,242.6 90.9,250.39999999999998 99.1,250.39999999999998" fill="#1D4ED8"/>
  <line x1="140" y1="247.79999999999998" x2="145.5" y2="247.79999999999998" stroke="#1E293B" stroke-width="1.0" stroke-linecap="round"/>
  <rect x="135.8" y="243.6" width="8.4" height="8.4" rx="1.5" fill="#FFFFFF"/>
  <rect x="136.8" y="244.6" width="6.4" height="6.4" rx="1.0" fill="#1E293B"/>
  <line x1="150" y1="276.6" x2="155.5" y2="276.6" stroke="#1E293B" stroke-width="1.0" stroke-linecap="round"/>
  <polygon points="150,269.8 144.7,280 155.3,280" fill="#FFFFFF"/>
  <polygon points="150,271.40000000000003 145.9,279.20000000000005 154.1,279.20000000000005" fill="#1E293B"/>
</svg>