<svg xmlns="http://www.w3.org/2000/svg" viewBox="16.00 14.00 296.64 234.00" width="296.64pt" height="234.00pt" style="background:#FFFFFF;">
  <defs>
    <style>
      .janko-title { font-family: "Century Schoolbook", "Baskerville", "Liberation Serif", "DejaVu Serif", "Times New Roman", Georgia, serif; font-weight: 600; font-size: 11pt; letter-spacing: 0.3px; fill: #111111; }
      .janko-subtitle { font-family: "Century Schoolbook", "Baskerville", "Liberation Serif", "DejaVu Serif", "Times New Roman", Georgia, serif; font-style: italic; font-size: 8.5pt; fill: #333333; }
      .janko-meta { font-family: "Century Schoolbook", "Baskerville", "Liberation Serif", "DejaVu Serif", "Times New Roman", Georgia, serif; font-style: italic; font-size: 8pt; fill: #222222; }
      .janko-measure-num { font-family: "Century Schoolbook", "Baskerville", "Liberation Serif", "DejaVu Serif", "Times New Roman", Georgia, serif; font-style: italic; font-size: 8.5pt; fill: #444444; font-weight: bold; }
      .janko-octave-label { font-family: "DejaVu Sans Mono", monospace; font-size: 7.5pt; font-weight: bold; fill: #6B7280; }
      .janko-hand-label { font-family: "Century Schoolbook", "Baskerville", "Liberation Serif", "DejaVu Serif", "Times New Roman", Georgia, serif; font-style: italic; font-size: 8pt; fill: #555555; }
      .janko-ts-num { font-family: "Century Schoolbook", "Baskerville", "Liberation Serif", "DejaVu Serif", "Times New Roman", Georgia, serif; font-weight: bold; font-size: 14pt; fill: #111111; text-anchor: middle; }
      .janko-caption { font-family: "Century Schoolbook", "Baskerville", "Liberation Serif", "DejaVu Serif", "Times New Roman", Georgia, serif; font-weight: 600; font-size: 8pt; fill: #111827; }
      .janko-caption-sub { font-family: "Century Schoolbook", "Baskerville", "Liberation Serif", "DejaVu Serif", "Times New Roman", Georgia, serif; font-style: italic; font-size: 7.5pt; fill: #4B5563; }
      .janko-digit { font-family: "URW Gothic", "Century Gothic", "ITC Avant Garde Gothic", "Avant Garde", sans-serif; text-anchor: middle; font-weight: bold; }
    </style>
  </defs>
  <rect x="16.00" y="14.00" width="296.64" height="234.00" fill="#FFFFFF"/>
    <text x="22.00" y="24.50" class="janko-caption" font-size="7.00pt">mm. 1–2</text>
    <text x="22.00" y="33.50" class="janko-caption" font-size="7.00pt">The bracket is reduced to its pure function — framing the</text>
    <text x="22.00" y="42.50" class="janko-caption" font-size="7.00pt">cluster — with zero duration ink of its own. Duration stays</text>
    <text x="22.00" y="51.50" class="janko-caption" font-size="7.00pt">on the outermost notehead’s own stem mark or hold line, so</text>
    <text x="22.00" y="60.50" class="janko-caption" font-size="7.00pt">the sonority is grouped without a second duration</text>
    <text x="22.00" y="69.50" class="janko-caption" font-size="7.00pt">statement. The most austere, least redundant answer.</text>
  <g class="janko-crop-body">
  <g id="system-1">
    <text class="janko-measure-num" x="36.00" y="84.00">1</text>
    <path class="janko-accolade" d="M 21.35 180.47 C 21.35 169.45, 17.00 164.21, 17.00 164.00 C 17.00 163.47, 21.35 158.97, 21.35 147.53 C 21.35 135.98, 17.32 125.18, 17.32 112.03 C 17.32 104.33, 18.80 96.84, 23.05 90.43 C 23.36 90.00, 24.00 90.53, 23.68 90.96 C 20.39 95.88, 19.33 101.44, 19.33 107.32 C 19.33 118.77, 23.26 129.46, 23.26 142.40 C 23.26 150.10, 21.88 157.58, 17.64 164.00 C 21.88 170.42, 23.26 177.90, 23.26 185.60 C 23.26 198.54, 19.33 209.23, 19.33 220.68 C 19.33 226.56, 20.39 232.12, 23.68 237.04 C 24.00 237.47, 23.36 238.00, 23.05 237.57 C 18.80 231.16, 17.32 223.67, 17.32 215.97 C 17.32 202.82, 21.35 192.02, 21.35 180.47 Z" fill="#111827"/>



  <g class="janko-staff-lines">
    <line x1="38.00" y1="106.00" x2="571.28" y2="106.00" stroke="#1E293B" stroke-width="0.50"/>
    <line x1="38.00" y1="222.00" x2="571.28" y2="222.00" stroke="#1E293B" stroke-width="0.50"/>
    <line x1="38.00" y1="136.00" x2="571.28" y2="136.00" stroke="#1E293B" stroke-width="0.50"/>
    <line x1="38.00" y1="192.00" x2="571.28" y2="192.00" stroke="#1E293B" stroke-width="0.50"/>
  </g>
  <g class="janko-beat-grid">
    <line class="janko-beat-line" x1="84.44" y1="94.00" x2="84.44" y2="148.00" stroke="#9CA3AF" stroke-width="0.70" stroke-dasharray="2,3"/>
    <line class="janko-beat-line" x1="84.44" y1="180.00" x2="84.44" y2="234.00" stroke="#9CA3AF" stroke-width="0.70" stroke-dasharray="2,3"/>
    <line class="janko-beat-line" x1="124.88" y1="94.00" x2="124.88" y2="148.00" stroke="#9CA3AF" stroke-width="0.70" stroke-dasharray="2,3"/>
    <line class="janko-beat-line" x1="124.88" y1="180.00" x2="124.88" y2="234.00" stroke="#9CA3AF" stroke-width="0.70" stroke-dasharray="2,3"/>
    <line class="janko-beat-line" x1="217.76" y1="94.00" x2="217.76" y2="148.00" stroke="#9CA3AF" stroke-width="0.70" stroke-dasharray="2,3"/>
    <line class="janko-beat-line" x1="217.76" y1="180.00" x2="217.76" y2="234.00" stroke="#9CA3AF" stroke-width="0.70" stroke-dasharray="2,3"/>
    <line class="janko-beat-line" x1="258.20" y1="94.00" x2="258.20" y2="148.00" stroke="#9CA3AF" stroke-width="0.70" stroke-dasharray="2,3"/>
    <line class="janko-beat-line" x1="258.20" y1="180.00" x2="258.20" y2="234.00" stroke="#9CA3AF" stroke-width="0.70" stroke-dasharray="2,3"/>
    <line class="janko-beat-line" x1="351.08" y1="94.00" x2="351.08" y2="148.00" stroke="#9CA3AF" stroke-width="0.70" stroke-dasharray="2,3"/>
    <line class="janko-beat-line" x1="351.08" y1="180.00" x2="351.08" y2="234.00" stroke="#9CA3AF" stroke-width="0.70" stroke-dasharray="2,3"/>
    <line class="janko-beat-line" x1="391.52" y1="94.00" x2="391.52" y2="148.00" stroke="#9CA3AF" stroke-width="0.70" stroke-dasharray="2,3"/>
    <line class="janko-beat-line" x1="391.52" y1="180.00" x2="391.52" y2="234.00" stroke="#9CA3AF" stroke-width="0.70" stroke-dasharray="2,3"/>
    <line class="janko-beat-line" x1="484.40" y1="94.00" x2="484.40" y2="148.00" stroke="#9CA3AF" stroke-width="0.70" stroke-dasharray="2,3"/>
    <line class="janko-beat-line" x1="484.40" y1="180.00" x2="484.40" y2="234.00" stroke="#9CA3AF" stroke-width="0.70" stroke-dasharray="2,3"/>
    <line class="janko-beat-line" x1="524.84" y1="94.00" x2="524.84" y2="148.00" stroke="#9CA3AF" stroke-width="0.70" stroke-dasharray="2,3"/>
    <line class="janko-beat-line" x1="524.84" y1="180.00" x2="524.84" y2="234.00" stroke="#9CA3AF" stroke-width="0.70" stroke-dasharray="2,3"/>
  </g>
  <g class="janko-barlines">
    <line class="janko-barline" x1="171.32" y1="94.00" x2="171.32" y2="148.00" stroke="#111111" stroke-width="0.60"/>
    <line class="janko-barline" x1="171.32" y1="180.00" x2="171.32" y2="234.00" stroke="#111111" stroke-width="0.60"/>
    <line class="janko-barline" x1="304.64" y1="94.00" x2="304.64" y2="148.00" stroke="#111111" stroke-width="0.60"/>
    <line class="janko-barline" x1="304.64" y1="180.00" x2="304.64" y2="234.00" stroke="#111111" stroke-width="0.60"/>
    <line class="janko-barline" x1="437.96" y1="94.00" x2="437.96" y2="148.00" stroke="#111111" stroke-width="0.60"/>
    <line class="janko-barline" x1="437.96" y1="180.00" x2="437.96" y2="234.00" stroke="#111111" stroke-width="0.60"/>
  </g>
  <g class="janko-notes">
  <g class="janko-beam-group">
    <line class="janko-stem" x1="49.60" y1="221.10" x2="49.60" y2="230.50" stroke="#111111" stroke-width="0.90"/>
    <line class="janko-stem" x1="69.82" y1="189.50" x2="69.82" y2="226.05" stroke="#111111" stroke-width="0.90"/>
    <line class="janko-stem" x1="79.93" y1="189.50" x2="79.93" y2="223.83" stroke="#111111" stroke-width="0.90"/>
    <line class="janko-beam" x1="49.60" y1="230.50" x2="79.93" y2="223.83" stroke="#111111" stroke-width="1.80" stroke-linecap="butt"/>
    <line class="janko-beam-secondary" x1="69.82" y1="222.65" x2="79.93" y2="220.43" stroke="#111111" stroke-width="1.80" stroke-linecap="butt"/>
  </g>
  <g class="janko-beam-group">
    <line class="janko-stem" x1="49.60" y1="121.90" x2="49.60" y2="112.50" stroke="#111111" stroke-width="0.90"/>
    <line class="janko-stem" x1="59.71" y1="138.50" x2="59.71" y2="114.72" stroke="#111111" stroke-width="0.90"/>
    <line class="janko-beam" x1="49.60" y1="112.50" x2="59.71" y2="114.72" stroke="#111111" stroke-width="1.80" stroke-linecap="butt"/>
    <line class="janko-beam-secondary" x1="49.60" y1="115.90" x2="59.71" y2="118.12" stroke="#111111" stroke-width="1.80" stroke-linecap="butt"/>
  </g>
  <g class="janko-beam-group">
    <line class="janko-stem" x1="90.04" y1="189.50" x2="90.04" y2="200.50" stroke="#111111" stroke-width="0.90"/>
    <line class="janko-stem" x1="110.26" y1="189.50" x2="110.26" y2="200.50" stroke="#111111" stroke-width="0.90"/>
    <line class="janko-beam" x1="90.04" y1="200.50" x2="110.26" y2="200.50" stroke="#111111" stroke-width="1.80" stroke-linecap="butt"/>
  </g>
  <g class="janko-beam-group">
    <line class="janko-stem" x1="100.15" y1="138.50" x2="100.15" y2="127.50" stroke="#111111" stroke-width="0.90"/>
    <line class="janko-stem" x1="110.26" y1="138.50" x2="110.26" y2="127.50" stroke="#111111" stroke-width="0.90"/>
    <line class="janko-stem" x1="120.37" y1="138.50" x2="120.37" y2="127.50" stroke="#111111" stroke-width="0.90"/>
    <line class="janko-beam" x1="100.15" y1="127.50" x2="120.37" y2="127.50" stroke="#111111" stroke-width="1.80" stroke-linecap="butt"/>
    <line class="janko-beam-secondary" x1="100.15" y1="130.90" x2="120.37" y2="130.90" stroke="#111111" stroke-width="1.80" stroke-linecap="butt"/>
  </g>
  <g class="janko-beam-group">
    <line class="janko-stem" x1="130.48" y1="219.50" x2="130.48" y2="230.50" stroke="#111111" stroke-width="0.90"/>
    <line class="janko-stem" x1="150.70" y1="189.50" x2="150.70" y2="226.05" stroke="#111111" stroke-width="0.90"/>
    <line class="janko-beam" x1="130.48" y1="230.50" x2="150.70" y2="226.05" stroke="#111111" stroke-width="1.80" stroke-linecap="butt"/>
  </g>
  <g class="janko-beam-group">
    <line class="janko-stem" x1="130.48" y1="123.50" x2="130.48" y2="89.17" stroke="#111111" stroke-width="0.90"/>
    <line class="janko-stem" x1="140.59" y1="123.50" x2="140.59" y2="86.95" stroke="#111111" stroke-width="0.90"/>
    <line class="janko-stem" x1="150.70" y1="123.50" x2="150.70" y2="84.72" stroke="#111111" stroke-width="0.90"/>
    <line class="janko-stem" x1="160.81" y1="93.50" x2="160.81" y2="82.50" stroke="#111111" stroke-width="0.90"/>
    <line class="janko-beam" x1="130.48" y1="89.17" x2="160.81" y2="82.50" stroke="#111111" stroke-width="1.80" stroke-linecap="butt"/>
    <line class="janko-beam-secondary" x1="130.48" y1="92.57" x2="160.81" y2="85.90" stroke="#111111" stroke-width="1.80" stroke-linecap="butt"/>
  </g>
  <g class="janko-beam-group">
    <line class="janko-stem" x1="182.92" y1="108.50" x2="182.92" y2="84.72" stroke="#111111" stroke-width="0.90"/>
    <line class="janko-stem" x1="193.03" y1="93.50" x2="193.03" y2="82.50" stroke="#111111" stroke-width="0.90"/>
    <line class="janko-beam" x1="182.92" y1="84.72" x2="193.03" y2="82.50" stroke="#111111" stroke-width="1.80" stroke-linecap="butt"/>
    <line class="janko-beam-secondary" x1="182.92" y1="88.12" x2="193.03" y2="85.90" stroke="#111111" stroke-width="1.80" stroke-linecap="butt"/>
  </g>
  <g class="janko-beam-group">
    <line class="janko-stem" x1="182.92" y1="234.50" x2="182.92" y2="245.50" stroke="#111111" stroke-width="0.90"/>
    <line class="janko-stem" x1="203.14" y1="204.50" x2="203.14" y2="241.05" stroke="#111111" stroke-width="0.90"/>
    <line class="janko-stem" x1="213.25" y1="204.50" x2="213.25" y2="238.83" stroke="#111111" stroke-width="0.90"/>
    <line class="janko-beam" x1="182.92" y1="245.50" x2="213.25" y2="238.83" stroke="#111111" stroke-width="1.80" stroke-linecap="butt"/>
    <line class="janko-beam-secondary" x1="203.14" y1="237.65" x2="213.25" y2="235.43" stroke="#111111" stroke-width="1.80" stroke-linecap="butt"/>
  </g>
  <g class="janko-beam-group">
    <line class="janko-stem" x1="223.36" y1="204.50" x2="223.36" y2="215.50" stroke="#111111" stroke-width="0.90"/>
    <line class="janko-stem" x1="243.58" y1="204.50" x2="243.58" y2="215.50" stroke="#111111" stroke-width="0.90"/>
    <line class="janko-beam" x1="223.36" y1="215.50" x2="243.58" y2="215.50" stroke="#111111" stroke-width="1.80" stroke-linecap="butt"/>
  </g>
  <g class="janko-beam-group">
    <line class="janko-stem" x1="233.47" y1="123.50" x2="233.47" y2="86.95" stroke="#111111" stroke-width="0.90"/>
    <line class="janko-stem" x1="243.58" y1="123.50" x2="243.58" y2="84.72" stroke="#111111" stroke-width="0.90"/>
    <line class="janko-stem" x1="253.69" y1="93.50" x2="253.69" y2="82.50" stroke="#111111" stroke-width="0.90"/>
    <line class="janko-beam" x1="233.47" y1="86.95" x2="253.69" y2="82.50" stroke="#111111" stroke-width="1.80" stroke-linecap="butt"/>
    <line class="janko-beam-secondary" x1="233.47" y1="90.35" x2="253.69" y2="85.90" stroke="#111111" stroke-width="1.80" stroke-linecap="butt"/>
  </g>
  <g class="janko-beam-group">
    <line class="janko-stem" x1="263.80" y1="108.50" x2="263.80" y2="97.50" stroke="#111111" stroke-width="0.90"/>
    <line class="janko-stem" x1="273.91" y1="108.50" x2="273.91" y2="97.50" stroke="#111111" stroke-width="0.90"/>
    <line class="janko-stem" x1="284.02" y1="108.50" x2="284.02" y2="97.50" stroke="#111111" stroke-width="0.90"/>
    <line class="janko-stem" x1="294.13" y1="108.50" x2="294.13" y2="97.50" stroke="#111111" stroke-width="0.90"/>
    <line class="janko-beam" x1="263.80" y1="97.50" x2="294.13" y2="97.50" stroke="#111111" stroke-width="1.80" stroke-linecap="butt"/>
    <line class="janko-beam-secondary" x1="263.80" y1="100.90" x2="294.13" y2="100.90" stroke="#111111" stroke-width="1.80" stroke-linecap="butt"/>
  </g>
  <g class="janko-beam-group">
    <line class="janko-stem" x1="263.80" y1="234.50" x2="263.80" y2="245.50" stroke="#111111" stroke-width="0.90"/>
    <line class="janko-stem" x1="284.02" y1="204.50" x2="284.02" y2="241.05" stroke="#111111" stroke-width="0.90"/>
    <line class="janko-beam" x1="263.80" y1="245.50" x2="284.02" y2="241.05" stroke="#111111" stroke-width="1.80" stroke-linecap="butt"/>
  </g>
  <g class="janko-beam-group">
    <line class="janko-stem" x1="310.64" y1="234.50" x2="310.64" y2="245.50" stroke="#111111" stroke-width="0.90"/>
    <line class="janko-stem" x1="330.86" y1="204.50" x2="330.86" y2="241.05" stroke="#111111" stroke-width="0.90"/>
    <line class="janko-stem" x1="340.97" y1="204.50" x2="340.97" y2="238.83" stroke="#111111" stroke-width="0.90"/>
    <line class="janko-beam" x1="310.64" y1="245.50" x2="340.97" y2="238.83" stroke="#111111" stroke-width="1.80" stroke-linecap="butt"/>
    <line class="janko-beam-secondary" x1="330.86" y1="237.65" x2="340.97" y2="235.43" stroke="#111111" stroke-width="1.80" stroke-linecap="butt"/>
  </g>
  <g class="janko-beam-group">
    <line class="janko-stem" x1="310.64" y1="93.50" x2="310.64" y2="82.50" stroke="#111111" stroke-width="0.90"/>
    <line class="janko-stem" x1="320.75" y1="108.50" x2="320.75" y2="84.72" stroke="#111111" stroke-width="0.90"/>
    <line class="janko-beam" x1="310.64" y1="82.50" x2="320.75" y2="84.72" stroke="#111111" stroke-width="1.80" stroke-linecap="butt"/>
    <line class="janko-beam-secondary" x1="310.64" y1="85.90" x2="320.75" y2="88.12" stroke="#111111" stroke-width="1.80" stroke-linecap="butt"/>
  </g>
  <g class="janko-beam-group">
    <line class="janko-stem" x1="351.08" y1="204.50" x2="351.08" y2="215.50" stroke="#111111" stroke-width="0.90"/>
    <line class="janko-stem" x1="371.30" y1="189.50" x2="371.30" y2="211.05" stroke="#111111" stroke-width="0.90"/>
    <line class="janko-beam" x1="351.08" y1="215.50" x2="371.30" y2="211.05" stroke="#111111" stroke-width="1.80" stroke-linecap="butt"/>
  </g>
  <g class="janko-beam-group">
    <line class="janko-stem" x1="361.19" y1="108.50" x2="361.19" y2="97.50" stroke="#111111" stroke-width="0.90"/>
    <line class="janko-stem" x1="371.30" y1="108.50" x2="371.30" y2="97.50" stroke="#111111" stroke-width="0.90"/>
    <line class="janko-stem" x1="381.41" y1="108.50" x2="381.41" y2="97.50" stroke="#111111" stroke-width="0.90"/>
    <line class="janko-beam" x1="361.19" y1="97.50" x2="381.41" y2="97.50" stroke="#111111" stroke-width="1.80" stroke-linecap="butt"/>
    <line class="janko-beam-secondary" x1="361.19" y1="100.90" x2="381.41" y2="100.90" stroke="#111111" stroke-width="1.80" stroke-linecap="butt"/>
  </g>
  <g class="janko-beam-group">
    <line class="janko-stem" x1="391.52" y1="93.50" x2="391.52" y2="82.50" stroke="#111111" stroke-width="0.90"/>
    <line class="janko-stem" x1="401.63" y1="108.50" x2="401.63" y2="84.72" stroke="#111111" stroke-width="0.90"/>
    <line class="janko-stem" x1="417.24" y1="123.50" x2="417.24" y2="88.16" stroke="#111111" stroke-width="0.90"/>
    <line class="janko-stem" x1="426.84" y1="123.50" x2="426.84" y2="90.27" stroke="#111111" stroke-width="0.90"/>
    <line class="janko-beam" x1="391.52" y1="82.50" x2="426.84" y2="90.27" stroke="#111111" stroke-width="1.80" stroke-linecap="butt"/>
    <line class="janko-beam-secondary" x1="391.52" y1="85.90" x2="426.84" y2="93.67" stroke="#111111" stroke-width="1.80" stroke-linecap="butt"/>
  </g>
  <g class="janko-beam-group">
    <line class="janko-stem" x1="449.56" y1="204.50" x2="449.56" y2="215.50" stroke="#111111" stroke-width="0.90"/>
    <line class="janko-stem" x1="469.78" y1="204.50" x2="469.78" y2="215.50" stroke="#111111" stroke-width="0.90"/>
    <line class="janko-stem" x1="479.89" y1="204.50" x2="479.89" y2="215.50" stroke="#111111" stroke-width="0.90"/>
    <line class="janko-beam" x1="449.56" y1="215.50" x2="479.89" y2="215.50" stroke="#111111" stroke-width="1.80" stroke-linecap="butt"/>
    <line class="janko-beam-secondary" x1="469.78" y1="212.10" x2="479.89" y2="212.10" stroke="#111111" stroke-width="1.80" stroke-linecap="butt"/>
  </g>
  <g class="janko-beam-group">
    <line class="janko-stem" x1="449.56" y1="138.50" x2="449.56" y2="119.17" stroke="#111111" stroke-width="0.90"/>
    <line class="janko-stem" x1="459.67" y1="138.50" x2="459.67" y2="116.95" stroke="#111111" stroke-width="0.90"/>
    <line class="janko-stem" x1="469.78" y1="138.50" x2="469.78" y2="114.72" stroke="#111111" stroke-width="0.90"/>
    <line class="janko-stem" x1="479.89" y1="123.50" x2="479.89" y2="112.50" stroke="#111111" stroke-width="0.90"/>
    <line class="janko-beam" x1="449.56" y1="119.17" x2="479.89" y2="112.50" stroke="#111111" stroke-width="1.80" stroke-linecap="butt"/>
    <line class="janko-beam-secondary" x1="449.56" y1="122.57" x2="479.89" y2="115.90" stroke="#111111" stroke-width="1.80" stroke-linecap="butt"/>
  </g>
  <g class="janko-beam-group">
    <line class="janko-stem" x1="490.00" y1="138.50" x2="490.00" y2="127.50" stroke="#111111" stroke-width="0.90"/>
    <line class="janko-stem" x1="500.11" y1="138.50" x2="500.11" y2="127.50" stroke="#111111" stroke-width="0.90"/>
    <line class="janko-beam" x1="490.00" y1="127.50" x2="500.11" y2="127.50" stroke="#111111" stroke-width="1.80" stroke-linecap="butt"/>
    <line class="janko-beam-secondary" x1="490.00" y1="130.90" x2="500.11" y2="130.90" stroke="#111111" stroke-width="1.80" stroke-linecap="butt"/>
  </g>
  <g class="janko-beam-group">
    <line class="janko-stem" x1="490.00" y1="204.50" x2="490.00" y2="215.50" stroke="#111111" stroke-width="0.90"/>
    <line class="janko-stem" x1="510.22" y1="204.50" x2="510.22" y2="215.50" stroke="#111111" stroke-width="0.90"/>
    <line class="janko-beam" x1="490.00" y1="215.50" x2="510.22" y2="215.50" stroke="#111111" stroke-width="1.80" stroke-linecap="butt"/>
  </g>
  <g class="janko-beam-group">
    <line class="janko-stem" x1="530.44" y1="234.50" x2="530.44" y2="245.50" stroke="#111111" stroke-width="0.90"/>
    <line class="janko-stem" x1="550.66" y1="204.50" x2="550.66" y2="241.05" stroke="#111111" stroke-width="0.90"/>
    <line class="janko-beam" x1="530.44" y1="245.50" x2="550.66" y2="241.05" stroke="#111111" stroke-width="1.80" stroke-linecap="butt"/>
  </g>
  <g class="janko-beam-group">
    <line class="janko-stem" x1="540.55" y1="179.50" x2="540.55" y2="168.50" stroke="#111111" stroke-width="0.90"/>
    <line class="janko-stem" x1="560.77" y1="194.50" x2="560.77" y2="172.95" stroke="#111111" stroke-width="0.90"/>
    <line class="janko-beam" x1="540.55" y1="168.50" x2="560.77" y2="172.95" stroke="#111111" stroke-width="1.80" stroke-linecap="butt"/>
    <line class="janko-beam-secondary" x1="540.55" y1="171.90" x2="560.77" y2="176.35" stroke="#111111" stroke-width="1.80" stroke-linecap="butt"/>
  </g>
    <line class="janko-stem" x1="69.82" y1="123.50" x2="69.82" y2="112.50" stroke="#111111" stroke-width="0.90"/>
    <line class="janko-flag" data-stem-x="69.82" data-flag-index="1" x1="69.82" y1="112.50" x2="73.82" y2="113.38" stroke="#111111" stroke-width="1.10" stroke-linecap="butt" data-subdivision-style="kinetic-tab-beam"/>
    <circle class="janko-augmentation-dot" cx="77.82" cy="128.50" r="1.30" fill="#111111"/>
    <line class="janko-stem" x1="203.14" y1="108.50" x2="203.14" y2="97.50" stroke="#111111" stroke-width="0.90"/>
    <line class="janko-flag" data-stem-x="203.14" data-flag-index="1" x1="203.14" y1="97.50" x2="207.14" y2="98.38" stroke="#111111" stroke-width="1.10" stroke-linecap="butt" data-subdivision-style="kinetic-tab-beam"/>
    <circle class="janko-augmentation-dot" cx="211.14" cy="113.50" r="1.30" fill="#111111"/>
    <line class="janko-stem" x1="330.86" y1="93.50" x2="330.86" y2="82.50" stroke="#111111" stroke-width="0.90"/>
    <line class="janko-flag" data-stem-x="330.86" data-flag-index="1" x1="330.86" y1="82.50" x2="334.86" y2="83.38" stroke="#111111" stroke-width="1.10" stroke-linecap="butt" data-subdivision-style="kinetic-tab-beam"/>
    <circle class="janko-augmentation-dot" cx="338.86" cy="98.50" r="1.30" fill="#111111"/>
    <line class="janko-stem" x1="391.52" y1="219.50" x2="391.52" y2="230.50" stroke="#111111" stroke-width="0.90"/>
    <line class="janko-flag" data-stem-x="391.52" data-flag-index="1" x1="391.52" y1="230.50" x2="395.52" y2="229.62" stroke="#111111" stroke-width="1.10" stroke-linecap="butt" data-subdivision-style="kinetic-tab-beam"/>
    <line class="janko-stem" x1="406.24" y1="133.50" x2="406.24" y2="144.50" stroke="#111111" stroke-width="0.90"/>
    <line class="janko-flag" data-stem-x="406.24" data-flag-index="1" x1="406.24" y1="144.50" x2="410.24" y2="143.62" stroke="#111111" stroke-width="1.10" stroke-linecap="butt" data-subdivision-style="kinetic-tab-beam"/>
    <line class="janko-stem" x1="510.22" y1="179.50" x2="510.22" y2="168.50" stroke="#111111" stroke-width="0.90"/>
    <line class="janko-flag" data-stem-x="510.22" data-flag-index="1" x1="510.22" y1="168.50" x2="514.22" y2="169.38" stroke="#111111" stroke-width="1.10" stroke-linecap="butt" data-subdivision-style="kinetic-tab-beam"/>
    <line class="janko-flag" data-stem-x="510.22" data-flag-index="2" x1="510.22" y1="171.90" x2="514.22" y2="172.78" stroke="#111111" stroke-width="1.10" stroke-linecap="butt" data-subdivision-style="kinetic-tab-beam"/>
    <line class="janko-stem" x1="520.33" y1="179.50" x2="520.33" y2="168.50" stroke="#111111" stroke-width="0.90"/>
    <line class="janko-flag" data-stem-x="520.33" data-flag-index="1" x1="520.33" y1="168.50" x2="524.33" y2="169.38" stroke="#111111" stroke-width="1.10" stroke-linecap="butt" data-subdivision-style="kinetic-tab-beam"/>
    <line class="janko-flag" data-stem-x="520.33" data-flag-index="2" x1="520.33" y1="171.90" x2="524.33" y2="172.78" stroke="#111111" stroke-width="1.10" stroke-linecap="butt" data-subdivision-style="kinetic-tab-beam"/>
    <line class="janko-stem" x1="530.44" y1="194.50" x2="530.44" y2="183.50" stroke="#111111" stroke-width="0.90"/>
    <line class="janko-flag" data-stem-x="530.44" data-flag-index="1" x1="530.44" y1="183.50" x2="534.44" y2="184.38" stroke="#111111" stroke-width="1.10" stroke-linecap="butt" data-subdivision-style="kinetic-tab-beam"/>
    <line class="janko-flag" data-stem-x="530.44" data-flag-index="2" x1="530.44" y1="186.90" x2="534.44" y2="187.78" stroke="#111111" stroke-width="1.10" stroke-linecap="butt" data-subdivision-style="kinetic-tab-beam"/>
    <circle class="janko-halo" cx="49.60" cy="214.50" r="6.20" fill="none" stroke="#111111" stroke-width="0.75"/>
    <circle class="janko-knockout" cx="49.60" cy="214.50" r="4.80" fill="#FFFFFF"/>
    <text class="janko-digit" x="49.60" y="217.36" font-weight="700" font-size="5.8pt" fill="#111111">7</text>
    <circle class="janko-halo" cx="49.60" cy="128.50" r="6.20" fill="none" stroke="#111111" stroke-width="0.75"/>
    <circle class="janko-knockout" cx="49.60" cy="128.50" r="4.80" fill="#FFFFFF"/>
    <text class="janko-digit" x="49.60" y="131.36" font-weight="700" font-size="5.8pt" fill="#111111">7</text>
    <circle class="janko-knockout" cx="59.71" cy="143.50" r="4.80" fill="#FFFFFF"/>
    <text class="janko-digit" x="59.71" y="146.36" font-weight="800" font-size="5.8pt" fill="#111111">6</text>
    <circle class="janko-knockout" cx="69.82" cy="128.50" r="4.80" fill="#FFFFFF"/>
    <text class="janko-digit" x="69.82" y="131.36" font-weight="700" font-size="5.8pt" fill="#111111">7</text>
    <circle class="janko-knockout" cx="69.82" cy="184.50" r="4.80" fill="#FFFFFF"/>
    <text class="janko-digit" x="69.82" y="187.36" font-weight="700" font-size="5.8pt" fill="#111111">B</text>
    <circle class="janko-knockout" cx="79.93" cy="184.50" r="4.80" fill="#FFFFFF"/>
    <text class="janko-digit" x="79.93" y="187.36" font-weight="700" font-size="5.8pt" fill="#111111">9</text>
    <circle class="janko-knockout" cx="90.04" cy="184.50" r="4.80" fill="#FFFFFF"/>
    <text class="janko-digit" x="90.04" y="187.36" font-weight="700" font-size="5.8pt" fill="#111111">B</text>
    <circle class="janko-knockout" cx="100.15" cy="143.50" r="4.80" fill="#FFFFFF"/>
    <text class="janko-digit" x="100.15" y="146.36" font-weight="800" font-size="5.8pt" fill="#111111">2</text>
    <circle class="janko-knockout" cx="110.26" cy="143.50" r="4.80" fill="#FFFFFF"/>
    <text class="janko-digit" x="110.26" y="146.36" font-weight="800" font-size="5.8pt" fill="#111111">4</text>
    <circle class="janko-knockout" cx="110.26" cy="184.50" r="4.80" fill="#FFFFFF"/>
    <text class="janko-digit" x="110.26" y="187.36" font-weight="700" font-size="5.8pt" fill="#111111">7</text>
    <circle class="janko-knockout" cx="120.37" cy="143.50" r="4.80" fill="#FFFFFF"/>
    <text class="janko-digit" x="120.37" y="146.36" font-weight="800" font-size="5.8pt" fill="#111111">6</text>
    <circle class="janko-knockout" cx="130.48" cy="214.50" r="4.80" fill="#FFFFFF"/>
    <text class="janko-digit" x="130.48" y="217.36" font-weight="700" font-size="5.8pt" fill="#111111">7</text>
    <circle class="janko-knockout" cx="130.48" cy="128.50" r="4.80" fill="#FFFFFF"/>
    <text class="janko-digit" x="130.48" y="131.36" font-weight="700" font-size="5.8pt" fill="#111111">7</text>
    <circle class="janko-knockout" cx="140.59" cy="128.50" r="4.80" fill="#FFFFFF"/>
    <text class="janko-digit" x="140.59" y="131.36" font-weight="700" font-size="5.8pt" fill="#111111">9</text>
    <circle class="janko-knockout" cx="150.70" cy="184.50" r="4.80" fill="#FFFFFF"/>
    <text class="janko-digit" x="150.70" y="187.36" font-weight="700" font-size="5.8pt" fill="#111111">7</text>
    <circle class="janko-knockout" cx="150.70" cy="128.50" r="4.80" fill="#FFFFFF"/>
    <text class="janko-digit" x="150.70" y="131.36" font-weight="700" font-size="5.8pt" fill="#111111">B</text>
    <circle class="janko-knockout" cx="160.81" cy="98.50" r="4.80" fill="#FFFFFF"/>
    <text class="janko-digit" x="160.81" y="101.36" font-weight="700" font-size="5.8pt" fill="#111111">1</text>
    <circle class="janko-knockout" cx="182.92" cy="113.50" r="4.80" fill="#FFFFFF"/>
    <text class="janko-digit" x="182.92" y="116.36" font-weight="800" font-size="5.8pt" fill="#111111">2</text>
    <circle class="janko-knockout" cx="182.92" cy="229.50" r="4.80" fill="#FFFFFF"/>
    <text class="janko-digit" x="182.92" y="232.36" font-weight="800" font-size="5.8pt" fill="#111111">6</text>
    <circle class="janko-knockout" cx="193.03" cy="98.50" r="4.80" fill="#FFFFFF"/>
    <text class="janko-digit" x="193.03" y="101.36" font-weight="700" font-size="5.8pt" fill="#111111">1</text>
    <circle class="janko-knockout" cx="203.14" cy="113.50" r="4.80" fill="#FFFFFF"/>
    <text class="janko-digit" x="203.14" y="116.36" font-weight="800" font-size="5.8pt" fill="#111111">2</text>
    <circle class="janko-knockout" cx="203.14" cy="199.50" r="4.80" fill="#FFFFFF"/>
    <text class="janko-digit" x="203.14" y="202.36" font-weight="800" font-size="5.8pt" fill="#111111">6</text>
    <circle class="janko-knockout" cx="213.25" cy="199.50" r="4.80" fill="#FFFFFF"/>
    <text class="janko-digit" x="213.25" y="202.36" font-weight="800" font-size="5.8pt" fill="#111111">4</text>
    <circle class="janko-knockout" cx="223.36" cy="199.50" r="4.80" fill="#FFFFFF"/>
    <text class="janko-digit" x="223.36" y="202.36" font-weight="800" font-size="5.8pt" fill="#111111">6</text>
    <circle class="janko-knockout" cx="233.47" cy="128.50" r="4.80" fill="#FFFFFF"/>
    <text class="janko-digit" x="233.47" y="131.36" font-weight="700" font-size="5.8pt" fill="#111111">9</text>
    <circle class="janko-knockout" cx="243.58" cy="199.50" r="4.80" fill="#FFFFFF"/>
    <text class="janko-digit" x="243.58" y="202.36" font-weight="800" font-size="5.8pt" fill="#111111">2</text>
    <circle class="janko-knockout" cx="243.58" cy="128.50" r="4.80" fill="#FFFFFF"/>
    <text class="janko-digit" x="243.58" y="131.36" font-weight="700" font-size="5.8pt" fill="#111111">B</text>
    <circle class="janko-knockout" cx="253.69" cy="98.50" r="4.80" fill="#FFFFFF"/>
    <text class="janko-digit" x="253.69" y="101.36" font-weight="700" font-size="5.8pt" fill="#111111">1</text>
    <circle class="janko-knockout" cx="263.80" cy="113.50" r="4.80" fill="#FFFFFF"/>
    <text class="janko-digit" x="263.80" y="116.36" font-weight="800" font-size="5.8pt" fill="#111111">2</text>
    <circle class="janko-knockout" cx="263.80" cy="229.50" r="4.80" fill="#FFFFFF"/>
    <text class="janko-digit" x="263.80" y="232.36" font-weight="800" font-size="5.8pt" fill="#111111">6</text>
    <circle class="janko-knockout" cx="273.91" cy="113.50" r="4.80" fill="#FFFFFF"/>
    <text class="janko-digit" x="273.91" y="116.36" font-weight="800" font-size="5.8pt" fill="#111111">4</text>
    <circle class="janko-knockout" cx="284.02" cy="199.50" r="4.80" fill="#FFFFFF"/>
    <text class="janko-digit" x="284.02" y="202.36" font-weight="800" font-size="5.8pt" fill="#111111">2</text>
    <circle class="janko-knockout" cx="284.02" cy="113.50" r="4.80" fill="#FFFFFF"/>
    <text class="janko-digit" x="284.02" y="116.36" font-weight="800" font-size="5.8pt" fill="#111111">6</text>
    <circle class="janko-knockout" cx="294.13" cy="113.50" r="4.80" fill="#FFFFFF"/>
    <text class="janko-digit" x="294.13" y="116.36" font-weight="800" font-size="5.8pt" fill="#111111">2</text>
    <circle class="janko-knockout" cx="310.64" cy="229.50" r="4.80" fill="#FFFFFF"/>
    <text class="janko-digit" x="310.64" y="232.36" font-weight="800" font-size="5.8pt" fill="#111111">4</text>
    <circle class="janko-knockout" cx="310.64" cy="98.50" r="4.80" fill="#FFFFFF"/>
    <text class="janko-digit" x="310.64" y="101.36" font-weight="700" font-size="5.8pt" fill="#111111">7</text>
    <circle class="janko-knockout" cx="320.75" cy="113.50" r="4.80" fill="#FFFFFF"/>
    <text class="janko-digit" x="320.75" y="116.36" font-weight="800" font-size="5.8pt" fill="#111111">6</text>
    <circle class="janko-knockout" cx="330.86" cy="199.50" r="4.80" fill="#FFFFFF"/>
    <text class="janko-digit" x="330.86" y="202.36" font-weight="800" font-size="5.8pt" fill="#111111">4</text>
    <circle class="janko-knockout" cx="330.86" cy="98.50" r="4.80" fill="#FFFFFF"/>
    <text class="janko-digit" x="330.86" y="101.36" font-weight="700" font-size="5.8pt" fill="#111111">7</text>
    <circle class="janko-knockout" cx="340.97" cy="199.50" r="4.80" fill="#FFFFFF"/>
    <text class="janko-digit" x="340.97" y="202.36" font-weight="800" font-size="5.8pt" fill="#111111">2</text>
    <circle class="janko-knockout" cx="351.08" cy="199.50" r="4.80" fill="#FFFFFF"/>
    <text class="janko-digit" x="351.08" y="202.36" font-weight="800" font-size="5.8pt" fill="#111111">4</text>
    <circle class="janko-knockout" cx="361.19" cy="113.50" r="4.80" fill="#FFFFFF"/>
    <text class="janko-digit" x="361.19" y="116.36" font-weight="800" font-size="5.8pt" fill="#111111">6</text>
    <circle class="janko-knockout" cx="371.30" cy="113.50" r="4.80" fill="#FFFFFF"/>
    <text class="janko-digit" x="371.30" y="116.36" font-weight="800" font-size="5.8pt" fill="#111111">4</text>
    <circle class="janko-knockout" cx="371.30" cy="184.50" r="4.80" fill="#FFFFFF"/>
    <text class="janko-digit" x="371.30" y="187.36" font-weight="700" font-size="5.8pt" fill="#111111">7</text>
    <circle class="janko-knockout" cx="381.41" cy="113.50" r="4.80" fill="#FFFFFF"/>
    <text class="janko-digit" x="381.41" y="116.36" font-weight="800" font-size="5.8pt" fill="#111111">2</text>
    <circle class="janko-knockout" cx="391.52" cy="98.50" r="4.80" fill="#FFFFFF"/>
    <text class="janko-digit" x="391.52" y="101.36" font-weight="700" font-size="5.8pt" fill="#111111">1</text>
    <circle class="janko-knockout" cx="391.52" cy="214.50" r="4.80" fill="#FFFFFF"/>
    <text class="janko-digit" x="391.52" y="217.36" font-weight="700" font-size="5.8pt" fill="#111111">9</text>
    <circle class="janko-knockout" cx="401.63" cy="113.50" r="4.80" fill="#FFFFFF"/>
    <text class="janko-digit" x="401.63" y="116.36" font-weight="800" font-size="5.8pt" fill="#111111">4</text>
    <circle class="janko-knockout" cx="406.24" cy="128.50" r="4.80" fill="#FFFFFF"/>
    <text class="janko-digit" x="406.24" y="131.36" font-weight="700" font-size="5.8pt" fill="#111111">1</text>
    <circle class="janko-knockout" cx="417.24" cy="128.50" r="4.80" fill="#FFFFFF"/>
    <text class="janko-digit" x="417.24" y="131.36" font-weight="700" font-size="5.8pt" fill="#111111">9</text>
    <circle class="janko-knockout" cx="426.84" cy="128.50" r="4.80" fill="#FFFFFF"/>
    <text class="janko-digit" x="426.84" y="131.36" font-weight="700" font-size="5.8pt" fill="#111111">7</text>
    <circle class="janko-knockout" cx="449.56" cy="199.50" r="4.80" fill="#FFFFFF"/>
    <text class="janko-digit" x="449.56" y="202.36" font-weight="800" font-size="5.8pt" fill="#111111">2</text>
    <circle class="janko-knockout" cx="449.56" cy="143.50" r="4.80" fill="#FFFFFF"/>
    <text class="janko-digit" x="449.56" y="146.36" font-weight="800" font-size="5.8pt" fill="#111111">6</text>
    <circle class="janko-knockout" cx="459.67" cy="143.50" r="4.80" fill="#FFFFFF"/>
    <text class="janko-digit" x="459.67" y="146.36" font-weight="800" font-size="5.8pt" fill="#111111">4</text>
    <circle class="janko-knockout" cx="469.78" cy="143.50" r="4.80" fill="#FFFFFF"/>
    <text class="janko-digit" x="469.78" y="146.36" font-weight="800" font-size="5.8pt" fill="#111111">2</text>
    <circle class="janko-knockout" cx="469.78" cy="199.50" r="4.80" fill="#FFFFFF"/>
    <text class="janko-digit" x="469.78" y="202.36" font-weight="800" font-size="5.8pt" fill="#111111">6</text>
    <circle class="janko-knockout" cx="479.89" cy="128.50" r="4.80" fill="#FFFFFF"/>
    <text class="janko-digit" x="479.89" y="131.36" font-weight="700" font-size="5.8pt" fill="#111111">1</text>
    <circle class="janko-knockout" cx="479.89" cy="199.50" r="4.80" fill="#FFFFFF"/>
    <text class="janko-digit" x="479.89" y="202.36" font-weight="800" font-size="5.8pt" fill="#111111">4</text>
    <circle class="janko-knockout" cx="490.00" cy="143.50" r="4.80" fill="#FFFFFF"/>
    <text class="janko-digit" x="490.00" y="146.36" font-weight="800" font-size="5.8pt" fill="#111111">2</text>
    <circle class="janko-knockout" cx="490.00" cy="199.50" r="4.80" fill="#FFFFFF"/>
    <text class="janko-digit" x="490.00" y="202.36" font-weight="800" font-size="5.8pt" fill="#111111">6</text>
    <circle class="janko-knockout" cx="500.11" cy="143.50" r="4.80" fill="#FFFFFF"/>
    <text class="janko-digit" x="500.11" y="146.36" font-weight="800" font-size="5.8pt" fill="#111111">6</text>
    <circle class="janko-knockout" cx="510.22" cy="199.50" r="4.80" fill="#FFFFFF"/>
    <text class="janko-digit" x="510.22" y="202.36" font-weight="800" font-size="5.8pt" fill="#111111">2</text>
    <circle class="janko-knockout" cx="510.22" cy="184.50" r="4.80" fill="#FFFFFF"/>
    <text class="janko-digit" x="510.22" y="187.36" font-weight="700" font-size="5.8pt" fill="#111111">9</text>
    <circle class="janko-knockout" cx="520.33" cy="184.50" r="4.80" fill="#FFFFFF"/>
    <text class="janko-digit" x="520.33" y="187.36" font-weight="700" font-size="5.8pt" fill="#111111">7</text>
    <circle class="janko-knockout" cx="530.44" cy="229.50" r="4.80" fill="#FFFFFF"/>
    <text class="janko-digit" x="530.44" y="232.36" font-weight="800" font-size="5.8pt" fill="#111111">2</text>
    <circle class="janko-knockout" cx="530.44" cy="199.50" r="4.80" fill="#FFFFFF"/>
    <text class="janko-digit" x="530.44" y="202.36" font-weight="800" font-size="5.8pt" fill="#111111">6</text>
    <circle class="janko-knockout" cx="540.55" cy="184.50" r="4.80" fill="#FFFFFF"/>
    <text class="janko-digit" x="540.55" y="187.36" font-weight="700" font-size="5.8pt" fill="#111111">9</text>
    <circle class="janko-knockout" cx="550.66" cy="199.50" r="4.80" fill="#FFFFFF"/>
    <text class="janko-digit" x="550.66" y="202.36" font-weight="800" font-size="5.8pt" fill="#111111">2</text>
    <circle class="janko-knockout" cx="560.77" cy="199.50" r="4.80" fill="#FFFFFF"/>
    <text class="janko-digit" x="560.77" y="202.36" font-weight="800" font-size="5.8pt" fill="#111111">0</text>
  </g>
  </g>
  </g>
</svg>