<svg xmlns="http://www.w3.org/2000/svg" viewBox="429.41 230.47 149.87 172.00" width="149.87pt" height="172.00pt" style="background:#FFFFFF;">
  <defs>
    <style>
      .janko-title { font-family: "Century Schoolbook", "Baskerville", "Liberation Serif", "DejaVu Serif", "Times New Roman", Georgia, serif; font-weight: 600; font-size: 11pt; letter-spacing: 0.3px; fill: #111111; }
      .janko-subtitle { font-family: "Century Schoolbook", "Baskerville", "Liberation Serif", "DejaVu Serif", "Times New Roman", Georgia, serif; font-style: italic; font-size: 8.5pt; fill: #333333; }
      .janko-meta { font-family: "Century Schoolbook", "Baskerville", "Liberation Serif", "DejaVu Serif", "Times New Roman", Georgia, serif; font-style: italic; font-size: 8pt; fill: #222222; }
      .janko-running-head { font-family: "Century Schoolbook", "Baskerville", "Liberation Serif", "DejaVu Serif", "Times New Roman", Georgia, serif; font-style: italic; font-size: 7pt; fill: #555555; }
      .janko-page-num { font-family: "Century Schoolbook", "Baskerville", "Liberation Serif", "DejaVu Serif", "Times New Roman", Georgia, serif; font-style: italic; font-size: 8pt; fill: #666666; font-weight: 400; }
      .janko-measure-num { font-family: "Century Schoolbook", "Baskerville", "Liberation Serif", "DejaVu Serif", "Times New Roman", Georgia, serif; font-style: italic; font-size: 7pt; fill: #555555; font-weight: normal; }
      .janko-octave-label { font-family: "DejaVu Sans Mono", monospace; font-size: 7.5pt; font-weight: bold; fill: #6B7280; }
      .janko-hand-label { font-family: "Century Schoolbook", "Baskerville", "Liberation Serif", "DejaVu Serif", "Times New Roman", Georgia, serif; font-style: italic; font-size: 8pt; fill: #555555; }
      .janko-ts-num { font-family: "Century Schoolbook", "Baskerville", "Liberation Serif", "DejaVu Serif", "Times New Roman", Georgia, serif; font-weight: bold; font-size: 14pt; fill: #111111; text-anchor: middle; }
      .janko-caption { font-family: "Century Schoolbook", "Baskerville", "Liberation Serif", "DejaVu Serif", "Times New Roman", Georgia, serif; font-weight: 600; font-size: 8pt; fill: #111827; }
      .janko-caption-sub { font-family: "Century Schoolbook", "Baskerville", "Liberation Serif", "DejaVu Serif", "Times New Roman", Georgia, serif; font-style: italic; font-size: 7.5pt; fill: #4B5563; }
      .janko-digit { font-family: "URW Gothic", "Century Gothic", "ITC Avant Garde Gothic", "Avant Garde", sans-serif; text-anchor: middle; font-weight: bold; }
    </style>
  </defs>
  <rect x="429.41" y="230.47" width="149.87" height="172.00" fill="#FFFFFF"/>
    <text x="435.41" y="240.97" class="janko-caption" font-size="7.00pt">m. 8</text>
    <text x="435.41" y="249.97" class="janko-caption" font-size="7.00pt">16th spacing stress test</text>
  <g class="janko-crop-body">
  <g id="system-2">
    <text class="janko-measure-num" x="25.80" y="267.47" text-anchor="end">5</text>

  <g class="janko-staff-lines">
    <line x1="35.80" y1="286.47" x2="571.28" y2="286.47" stroke="#1E293B" stroke-width="0.50"/>
    <line x1="35.80" y1="376.47" x2="571.28" y2="376.47" stroke="#1E293B" stroke-width="0.50"/>
    <line x1="35.80" y1="316.47" x2="571.28" y2="316.47" stroke="#1E293B" stroke-width="0.50"/>
    <line x1="35.80" y1="346.47" x2="571.28" y2="346.47" stroke="#1E293B" stroke-width="0.50"/>
  </g>
  <g class="janko-beat-grid">
    <line class="janko-beat-line" x1="82.42" y1="274.47" x2="82.42" y2="388.47" stroke="#9CA3AF" stroke-width="0.70" stroke-dasharray="2,3"/>
    <line class="janko-beat-line" x1="123.05" y1="274.47" x2="123.05" y2="388.47" stroke="#9CA3AF" stroke-width="0.70" stroke-dasharray="2,3"/>
    <line class="janko-beat-line" x1="216.29" y1="274.47" x2="216.29" y2="388.47" stroke="#9CA3AF" stroke-width="0.70" stroke-dasharray="2,3"/>
    <line class="janko-beat-line" x1="256.92" y1="274.47" x2="256.92" y2="388.47" stroke="#9CA3AF" stroke-width="0.70" stroke-dasharray="2,3"/>
    <line class="janko-beat-line" x1="350.16" y1="274.47" x2="350.16" y2="388.47" stroke="#9CA3AF" stroke-width="0.70" stroke-dasharray="2,3"/>
    <line class="janko-beat-line" x1="390.79" y1="274.47" x2="390.79" y2="388.47" stroke="#9CA3AF" stroke-width="0.70" stroke-dasharray="2,3"/>
    <line class="janko-beat-line" x1="484.03" y1="274.47" x2="484.03" y2="388.47" stroke="#9CA3AF" stroke-width="0.70" stroke-dasharray="2,3"/>
    <line class="janko-beat-line" x1="524.66" y1="274.47" x2="524.66" y2="388.47" stroke="#9CA3AF" stroke-width="0.70" stroke-dasharray="2,3"/>
  </g>
  <g class="janko-barlines">
    <line class="janko-barline" x1="169.67" y1="274.47" x2="169.67" y2="388.47" stroke="#111111" stroke-width="0.60"/>
    <line class="janko-barline" x1="303.54" y1="274.47" x2="303.54" y2="388.47" stroke="#111111" stroke-width="0.60"/>
    <line class="janko-barline" x1="437.41" y1="274.47" x2="437.41" y2="388.47" stroke="#111111" stroke-width="0.60"/>
  </g>
  <g class="janko-notes">
  <g class="janko-beam-group">
    <line class="janko-stem" x1="41.80" y1="363.97" x2="41.80" y2="282.44" stroke="#111111" stroke-width="0.90"/>
    <line class="janko-stem" x1="51.96" y1="363.97" x2="51.96" y2="280.21" stroke="#111111" stroke-width="0.90"/>
    <line class="janko-stem" x1="62.11" y1="288.97" x2="62.11" y2="277.97" stroke="#111111" stroke-width="0.90"/>
    <line class="janko-stem" x1="72.27" y1="288.97" x2="72.27" y2="275.74" stroke="#111111" stroke-width="0.90"/>
    <line class="janko-beam" x1="41.80" y1="282.44" x2="72.27" y2="275.74" stroke="#111111" stroke-width="1.80" stroke-linecap="butt"/>
    <line class="janko-beam-secondary" x1="41.80" y1="285.84" x2="72.27" y2="279.14" stroke="#111111" stroke-width="1.80" stroke-linecap="butt"/>
  </g>
  <g class="janko-beam-group">
    <line class="janko-stem" x1="82.42" y1="288.97" x2="82.42" y2="277.97" stroke="#111111" stroke-width="0.90"/>
    <line class="janko-stem" x1="102.73" y1="303.97" x2="102.73" y2="282.44" stroke="#111111" stroke-width="0.90"/>
    <line class="janko-beam" x1="82.42" y1="277.97" x2="102.73" y2="282.44" stroke="#111111" stroke-width="1.80" stroke-linecap="butt"/>
  </g>
  <g class="janko-beam-group">
    <line class="janko-stem" x1="92.58" y1="358.97" x2="92.58" y2="369.97" stroke="#111111" stroke-width="0.90"/>
    <line class="janko-stem" x1="102.73" y1="358.97" x2="102.73" y2="369.97" stroke="#111111" stroke-width="0.90"/>
    <line class="janko-stem" x1="112.89" y1="358.97" x2="112.89" y2="369.97" stroke="#111111" stroke-width="0.90"/>
    <line class="janko-beam" x1="92.58" y1="369.97" x2="112.89" y2="369.97" stroke="#111111" stroke-width="1.80" stroke-linecap="butt"/>
    <line class="janko-beam-secondary" x1="92.58" y1="366.57" x2="112.89" y2="366.57" stroke="#111111" stroke-width="1.80" stroke-linecap="butt"/>
  </g>
  <g class="janko-beam-group">
    <line class="janko-stem" x1="133.05" y1="343.97" x2="133.05" y2="354.97" stroke="#111111" stroke-width="0.90"/>
    <line class="janko-stem" x1="142.65" y1="343.97" x2="142.65" y2="354.97" stroke="#111111" stroke-width="0.90"/>
    <line class="janko-stem" x1="152.25" y1="343.97" x2="152.25" y2="354.97" stroke="#111111" stroke-width="0.90"/>
    <line class="janko-stem" x1="161.85" y1="343.97" x2="161.85" y2="354.97" stroke="#111111" stroke-width="0.90"/>
    <line class="janko-beam" x1="133.05" y1="354.97" x2="161.85" y2="354.97" stroke="#111111" stroke-width="1.80" stroke-linecap="butt"/>
    <line class="janko-beam-secondary" x1="133.05" y1="351.57" x2="161.85" y2="351.57" stroke="#111111" stroke-width="1.80" stroke-linecap="butt"/>
  </g>
  <g class="janko-beam-group">
    <line class="janko-stem" x1="123.05" y1="333.97" x2="123.05" y2="284.40" stroke="#111111" stroke-width="0.90"/>
    <line class="janko-stem" x1="152.25" y1="288.97" x2="152.25" y2="277.97" stroke="#111111" stroke-width="0.90"/>
    <line class="janko-beam" x1="123.05" y1="284.40" x2="152.25" y2="277.97" stroke="#111111" stroke-width="1.80" stroke-linecap="butt"/>
  </g>
  <g class="janko-beam-group">
    <line class="janko-stem" x1="175.67" y1="358.97" x2="175.67" y2="382.74" stroke="#111111" stroke-width="0.90"/>
    <line class="janko-stem" x1="185.83" y1="373.97" x2="185.83" y2="384.97" stroke="#111111" stroke-width="0.90"/>
    <line class="janko-beam" x1="175.67" y1="382.74" x2="185.83" y2="384.97" stroke="#111111" stroke-width="1.80" stroke-linecap="butt"/>
    <line class="janko-beam-secondary" x1="175.67" y1="379.34" x2="185.83" y2="381.57" stroke="#111111" stroke-width="1.80" stroke-linecap="butt"/>
  </g>
  <g class="janko-beam-group">
    <line class="janko-stem" x1="195.98" y1="288.97" x2="195.98" y2="277.97" stroke="#111111" stroke-width="0.90"/>
    <line class="janko-stem" x1="206.14" y1="288.97" x2="206.14" y2="277.97" stroke="#111111" stroke-width="0.90"/>
    <line class="janko-beam" x1="195.98" y1="277.97" x2="206.14" y2="277.97" stroke="#111111" stroke-width="1.80" stroke-linecap="butt"/>
    <line class="janko-beam-secondary" x1="195.98" y1="281.37" x2="206.14" y2="281.37" stroke="#111111" stroke-width="1.80" stroke-linecap="butt"/>
  </g>
  <g class="janko-beam-group">
    <line class="janko-stem" x1="216.29" y1="288.97" x2="216.29" y2="277.97" stroke="#111111" stroke-width="0.90"/>
    <line class="janko-stem" x1="236.61" y1="303.97" x2="236.61" y2="282.44" stroke="#111111" stroke-width="0.90"/>
    <line class="janko-beam" x1="216.29" y1="277.97" x2="236.61" y2="282.44" stroke="#111111" stroke-width="1.80" stroke-linecap="butt"/>
  </g>
  <g class="janko-beam-group">
    <line class="janko-stem" x1="226.45" y1="358.97" x2="226.45" y2="372.21" stroke="#111111" stroke-width="0.90"/>
    <line class="janko-stem" x1="236.61" y1="358.97" x2="236.61" y2="369.97" stroke="#111111" stroke-width="0.90"/>
    <line class="janko-stem" x1="246.76" y1="343.97" x2="246.76" y2="367.74" stroke="#111111" stroke-width="0.90"/>
    <line class="janko-beam" x1="226.45" y1="372.21" x2="246.76" y2="367.74" stroke="#111111" stroke-width="1.80" stroke-linecap="butt"/>
    <line class="janko-beam-secondary" x1="226.45" y1="368.81" x2="246.76" y2="364.34" stroke="#111111" stroke-width="1.80" stroke-linecap="butt"/>
  </g>
  <g class="janko-beam-group">
    <line class="janko-stem" x1="256.92" y1="318.97" x2="256.92" y2="282.44" stroke="#111111" stroke-width="0.90"/>
    <line class="janko-stem" x1="277.23" y1="288.97" x2="277.23" y2="277.97" stroke="#111111" stroke-width="0.90"/>
    <line class="janko-beam" x1="256.92" y1="282.44" x2="277.23" y2="277.97" stroke="#111111" stroke-width="1.80" stroke-linecap="butt"/>
  </g>
  <g class="janko-beam-group">
    <line class="janko-stem" x1="256.92" y1="343.97" x2="256.92" y2="354.97" stroke="#111111" stroke-width="0.90"/>
    <line class="janko-stem" x1="267.07" y1="343.97" x2="267.07" y2="354.97" stroke="#111111" stroke-width="0.90"/>
    <line class="janko-stem" x1="277.23" y1="328.97" x2="277.23" y2="354.97" stroke="#111111" stroke-width="0.90"/>
    <line class="janko-stem" x1="287.38" y1="343.97" x2="287.38" y2="354.97" stroke="#111111" stroke-width="0.90"/>
    <line class="janko-beam" x1="256.92" y1="354.97" x2="287.38" y2="354.97" stroke="#111111" stroke-width="1.80" stroke-linecap="butt"/>
    <line class="janko-beam-secondary" x1="256.92" y1="351.57" x2="287.38" y2="351.57" stroke="#111111" stroke-width="1.80" stroke-linecap="butt"/>
  </g>
  <g class="janko-beam-group">
    <line class="janko-stem" x1="309.54" y1="358.97" x2="309.54" y2="369.97" stroke="#111111" stroke-width="0.90"/>
    <line class="janko-stem" x1="319.70" y1="343.97" x2="319.70" y2="367.74" stroke="#111111" stroke-width="0.90"/>
    <line class="janko-beam" x1="309.54" y1="369.97" x2="319.70" y2="367.74" stroke="#111111" stroke-width="1.80" stroke-linecap="butt"/>
    <line class="janko-beam-secondary" x1="309.54" y1="366.57" x2="319.70" y2="364.34" stroke="#111111" stroke-width="1.80" stroke-linecap="butt"/>
  </g>
  <g class="janko-beam-group">
    <line class="janko-stem" x1="329.85" y1="288.97" x2="329.85" y2="277.97" stroke="#111111" stroke-width="0.90"/>
    <line class="janko-stem" x1="340.01" y1="288.97" x2="340.01" y2="277.97" stroke="#111111" stroke-width="0.90"/>
    <line class="janko-beam" x1="329.85" y1="277.97" x2="340.01" y2="277.97" stroke="#111111" stroke-width="1.80" stroke-linecap="butt"/>
    <line class="janko-beam-secondary" x1="329.85" y1="281.37" x2="340.01" y2="281.37" stroke="#111111" stroke-width="1.80" stroke-linecap="butt"/>
  </g>
  <g class="janko-beam-group">
    <line class="janko-stem" x1="350.16" y1="288.97" x2="350.16" y2="277.97" stroke="#111111" stroke-width="0.90"/>
    <line class="janko-stem" x1="370.48" y1="288.97" x2="370.48" y2="277.97" stroke="#111111" stroke-width="0.90"/>
    <line class="janko-beam" x1="350.16" y1="277.97" x2="370.48" y2="277.97" stroke="#111111" stroke-width="1.80" stroke-linecap="butt"/>
  </g>
  <g class="janko-beam-group">
    <line class="janko-stem" x1="360.32" y1="343.97" x2="360.32" y2="357.21" stroke="#111111" stroke-width="0.90"/>
    <line class="janko-stem" x1="370.48" y1="343.97" x2="370.48" y2="354.97" stroke="#111111" stroke-width="0.90"/>
    <line class="janko-stem" x1="380.63" y1="328.97" x2="380.63" y2="352.74" stroke="#111111" stroke-width="0.90"/>
    <line class="janko-beam" x1="360.32" y1="357.21" x2="380.63" y2="352.74" stroke="#111111" stroke-width="1.80" stroke-linecap="butt"/>
    <line class="janko-beam-secondary" x1="360.32" y1="353.81" x2="380.63" y2="349.34" stroke="#111111" stroke-width="1.80" stroke-linecap="butt"/>
  </g>
  <g class="janko-beam-group">
    <line class="janko-stem" x1="390.79" y1="328.97" x2="390.79" y2="339.97" stroke="#111111" stroke-width="0.90"/>
    <line class="janko-stem" x1="400.94" y1="328.97" x2="400.94" y2="339.97" stroke="#111111" stroke-width="0.90"/>
    <line class="janko-stem" x1="411.10" y1="328.97" x2="411.10" y2="339.97" stroke="#111111" stroke-width="0.90"/>
    <line class="janko-stem" x1="421.25" y1="328.97" x2="421.25" y2="339.97" stroke="#111111" stroke-width="0.90"/>
    <line class="janko-beam" x1="390.79" y1="339.97" x2="421.25" y2="339.97" stroke="#111111" stroke-width="1.80" stroke-linecap="butt"/>
    <line class="janko-beam-secondary" x1="390.79" y1="336.57" x2="421.25" y2="336.57" stroke="#111111" stroke-width="1.80" stroke-linecap="butt"/>
  </g>
  <g class="janko-beam-group">
    <line class="janko-stem" x1="443.41" y1="313.97" x2="443.41" y2="337.74" stroke="#111111" stroke-width="0.90"/>
    <line class="janko-stem" x1="453.57" y1="328.97" x2="453.57" y2="339.97" stroke="#111111" stroke-width="0.90"/>
    <line class="janko-stem" x1="473.72" y1="313.97" x2="473.72" y2="344.41" stroke="#111111" stroke-width="0.90"/>
    <line class="janko-stem" x1="474.72" y1="328.97" x2="474.72" y2="344.63" stroke="#111111" stroke-width="0.90"/>
    <line class="janko-beam" x1="443.41" y1="337.74" x2="474.72" y2="344.63" stroke="#111111" stroke-width="1.80" stroke-linecap="butt"/>
    <line class="janko-beam-secondary" x1="443.41" y1="334.34" x2="474.72" y2="341.23" stroke="#111111" stroke-width="1.80" stroke-linecap="butt"/>
  </g>
  <g class="janko-beam-group">
    <line class="janko-stem" x1="484.03" y1="343.97" x2="484.03" y2="354.97" stroke="#111111" stroke-width="0.90"/>
    <line class="janko-stem" x1="494.19" y1="328.97" x2="494.19" y2="354.97" stroke="#111111" stroke-width="0.90"/>
    <line class="janko-stem" x1="504.35" y1="343.97" x2="504.35" y2="354.97" stroke="#111111" stroke-width="0.90"/>
    <line class="janko-stem" x1="514.50" y1="343.97" x2="514.50" y2="354.97" stroke="#111111" stroke-width="0.90"/>
    <line class="janko-beam" x1="484.03" y1="354.97" x2="514.50" y2="354.97" stroke="#111111" stroke-width="1.80" stroke-linecap="butt"/>
    <line class="janko-beam-secondary" x1="484.03" y1="351.57" x2="514.50" y2="351.57" stroke="#111111" stroke-width="1.80" stroke-linecap="butt"/>
  </g>
  <g class="janko-beam-group">
    <line class="janko-stem" x1="494.19" y1="303.97" x2="494.19" y2="282.44" stroke="#111111" stroke-width="0.90"/>
    <line class="janko-stem" x1="504.35" y1="303.97" x2="504.35" y2="280.21" stroke="#111111" stroke-width="0.90"/>
    <line class="janko-stem" x1="514.50" y1="288.97" x2="514.50" y2="277.97" stroke="#111111" stroke-width="0.90"/>
    <line class="janko-beam" x1="494.19" y1="282.44" x2="514.50" y2="277.97" stroke="#111111" stroke-width="1.80" stroke-linecap="butt"/>
    <line class="janko-beam-secondary" x1="494.19" y1="285.84" x2="514.50" y2="281.37" stroke="#111111" stroke-width="1.80" stroke-linecap="butt"/>
  </g>
  <g class="janko-beam-group">
    <line class="janko-stem" x1="524.66" y1="358.97" x2="524.66" y2="384.97" stroke="#111111" stroke-width="0.90"/>
    <line class="janko-stem" x1="534.81" y1="343.97" x2="534.81" y2="384.97" stroke="#111111" stroke-width="0.90"/>
    <line class="janko-stem" x1="544.97" y1="373.97" x2="544.97" y2="384.97" stroke="#111111" stroke-width="0.90"/>
    <line class="janko-stem" x1="555.12" y1="358.97" x2="555.12" y2="384.97" stroke="#111111" stroke-width="0.90"/>
    <line class="janko-beam" x1="524.66" y1="384.97" x2="555.12" y2="384.97" stroke="#111111" stroke-width="1.80" stroke-linecap="butt"/>
    <line class="janko-beam-secondary" x1="524.66" y1="381.57" x2="555.12" y2="381.57" stroke="#111111" stroke-width="1.80" stroke-linecap="butt"/>
  </g>
  <g class="janko-beam-group">
    <line class="janko-stem" x1="524.66" y1="273.97" x2="524.66" y2="262.97" stroke="#111111" stroke-width="0.90"/>
    <line class="janko-stem" x1="534.81" y1="288.97" x2="534.81" y2="262.97" stroke="#111111" stroke-width="0.90"/>
    <line class="janko-stem" x1="544.97" y1="273.97" x2="544.97" y2="262.97" stroke="#111111" stroke-width="0.90"/>
    <line class="janko-stem" x1="555.12" y1="273.97" x2="555.12" y2="262.97" stroke="#111111" stroke-width="0.90"/>
    <line class="janko-beam" x1="524.66" y1="262.97" x2="555.12" y2="262.97" stroke="#111111" stroke-width="1.80" stroke-linecap="butt"/>
    <line class="janko-beam-secondary" x1="524.66" y1="266.37" x2="555.12" y2="266.37" stroke="#111111" stroke-width="1.80" stroke-linecap="butt"/>
  </g>
    <line class="janko-stem" x1="62.11" y1="373.97" x2="62.11" y2="384.97" stroke="#111111" stroke-width="0.90"/>
    <line class="janko-flag" data-stem-x="62.11" data-flag-index="1" x1="62.11" y1="384.97" x2="66.11" y2="384.09" stroke="#111111" stroke-width="1.10" stroke-linecap="butt" data-subdivision-style="kinetic-tab-beam"/>
    <circle class="janko-augmentation-dot" cx="70.11" cy="361.47" r="0.75" fill="#111111"/>
    <line class="janko-stem" x1="195.98" y1="358.97" x2="195.98" y2="369.97" stroke="#111111" stroke-width="0.90"/>
    <line class="janko-flag" data-stem-x="195.98" data-flag-index="1" x1="195.98" y1="369.97" x2="199.98" y2="369.09" stroke="#111111" stroke-width="1.10" stroke-linecap="butt" data-subdivision-style="kinetic-tab-beam"/>
    <circle class="janko-augmentation-dot" cx="203.98" cy="361.47" r="0.75" fill="#111111"/>
    <line class="janko-stem" x1="329.85" y1="358.97" x2="329.85" y2="369.97" stroke="#111111" stroke-width="0.90"/>
    <line class="janko-flag" data-stem-x="329.85" data-flag-index="1" x1="329.85" y1="369.97" x2="333.85" y2="369.09" stroke="#111111" stroke-width="1.10" stroke-linecap="butt" data-subdivision-style="kinetic-tab-beam"/>
    <circle class="janko-augmentation-dot" cx="337.85" cy="361.47" r="0.75" fill="#111111"/>
    <line class="janko-stem" x1="390.79" y1="273.97" x2="390.79" y2="262.97" stroke="#111111" stroke-width="0.90"/>
    <line class="janko-flag" data-stem-x="390.79" data-flag-index="1" x1="390.79" y1="262.97" x2="394.79" y2="263.85" stroke="#111111" stroke-width="1.10" stroke-linecap="butt" data-subdivision-style="kinetic-tab-beam"/>
    <line class="janko-stem" x1="411.10" y1="288.97" x2="411.10" y2="277.97" stroke="#111111" stroke-width="0.90"/>
    <line class="janko-stem" x1="463.72" y1="303.97" x2="463.72" y2="292.97" stroke="#111111" stroke-width="0.90"/>
    <line class="janko-flag" data-stem-x="463.72" data-flag-index="1" x1="463.72" y1="292.97" x2="467.72" y2="293.85" stroke="#111111" stroke-width="1.10" stroke-linecap="butt" data-subdivision-style="kinetic-tab-beam"/>
    <g class="janko-rest-group" data-rest-tick="720" data-rest-value="eighth" data-rest-hand="RH" data-rest-style="kinetic-monoline">
    <line class="janko-rest-stem" x1="175.67" y1="287.97" x2="175.67" y2="299.97" stroke="#111111" stroke-width="0.90" stroke-linecap="butt"/>
    <line class="janko-rest-tab" data-rest-tab="1" x1="175.67" y1="287.97" x2="179.67" y2="288.85" stroke="#111111" stroke-width="0.90" stroke-linecap="butt"/>
    </g>
    <g class="janko-rest-group" data-rest-tick="864" data-rest-value="eighth" data-rest-hand="RH" data-rest-style="kinetic-monoline">
    <line class="janko-rest-stem" x1="309.54" y1="287.97" x2="309.54" y2="299.97" stroke="#111111" stroke-width="0.90" stroke-linecap="butt"/>
    <line class="janko-rest-tab" data-rest-tab="1" x1="309.54" y1="287.97" x2="313.54" y2="288.85" stroke="#111111" stroke-width="0.90" stroke-linecap="butt"/>
    </g>
    <g class="janko-rest-group" data-rest-tick="1056" data-rest-value="sixteenth" data-rest-hand="RH" data-rest-style="kinetic-monoline">
    <line class="janko-rest-stem" x1="484.03" y1="293.20" x2="484.03" y2="305.20" stroke="#111111" stroke-width="0.90" stroke-linecap="butt"/>
    <line class="janko-rest-tab" data-rest-tab="1" x1="484.03" y1="293.20" x2="488.03" y2="294.08" stroke="#111111" stroke-width="0.90" stroke-linecap="butt"/>
    <line class="janko-rest-tab" data-rest-tab="2" x1="484.03" y1="296.60" x2="488.03" y2="297.48" stroke="#111111" stroke-width="0.90" stroke-linecap="butt"/>
    </g>
    <circle class="janko-knockout" cx="41.80" cy="368.97" r="4.80" fill="#FFFFFF"/>
    <text class="janko-digit" x="41.80" y="371.83" font-weight="700" font-size="5.8pt" fill="#111111">B</text>
    <circle class="janko-knockout" cx="51.96" cy="368.97" r="4.80" fill="#FFFFFF"/>
    <text class="janko-digit" x="51.96" y="371.83" font-weight="700" font-size="5.8pt" fill="#111111">9</text>
    <circle class="janko-knockout" cx="62.11" cy="293.97" r="4.80" fill="#FFFFFF"/>
    <text class="janko-digit" x="62.11" y="296.83" font-weight="800" font-size="5.8pt" fill="#111111">2</text>
    <circle class="janko-knockout" cx="62.11" cy="368.97" r="4.80" fill="#FFFFFF"/>
    <text class="janko-digit" x="62.11" y="371.83" font-weight="700" font-size="5.8pt" fill="#111111">B</text>
    <circle class="janko-knockout" cx="72.27" cy="293.97" r="4.80" fill="#FFFFFF"/>
    <text class="janko-digit" x="72.27" y="296.83" font-weight="800" font-size="5.8pt" fill="#111111">0</text>
    <circle class="janko-knockout" cx="82.42" cy="293.97" r="4.80" fill="#FFFFFF"/>
    <text class="janko-digit" x="82.42" y="296.83" font-weight="800" font-size="5.8pt" fill="#111111">2</text>
    <circle class="janko-knockout" cx="92.58" cy="353.97" r="4.80" fill="#FFFFFF"/>
    <text class="janko-digit" x="92.58" y="356.83" font-weight="800" font-size="5.8pt" fill="#111111">2</text>
    <circle class="janko-knockout" cx="102.73" cy="353.97" r="4.80" fill="#FFFFFF"/>
    <text class="janko-digit" x="102.73" y="356.83" font-weight="800" font-size="5.8pt" fill="#111111">4</text>
    <circle class="janko-knockout" cx="102.73" cy="308.97" r="4.80" fill="#FFFFFF"/>
    <text class="janko-digit" x="102.73" y="311.83" font-weight="700" font-size="5.8pt" fill="#111111">7</text>
    <circle class="janko-knockout" cx="112.89" cy="353.97" r="4.80" fill="#FFFFFF"/>
    <text class="janko-digit" x="112.89" y="356.83" font-weight="800" font-size="5.8pt" fill="#111111">6</text>
    <circle class="janko-knockout" cx="133.05" cy="338.97" r="4.80" fill="#FFFFFF"/>
    <text class="janko-digit" x="133.05" y="341.83" font-weight="700" font-size="5.8pt" fill="#111111">7</text>
    <circle class="janko-knockout" cx="123.05" cy="338.97" r="4.80" fill="#FFFFFF"/>
    <text class="janko-digit" x="123.05" y="341.83" font-weight="700" font-size="5.8pt" fill="#111111">B</text>
    <circle class="janko-knockout" cx="142.65" cy="338.97" r="4.80" fill="#FFFFFF"/>
    <text class="janko-digit" x="142.65" y="341.83" font-weight="700" font-size="5.8pt" fill="#111111">9</text>
    <circle class="janko-knockout" cx="152.25" cy="293.97" r="4.80" fill="#FFFFFF"/>
    <text class="janko-digit" x="152.25" y="296.83" font-weight="800" font-size="5.8pt" fill="#111111">2</text>
    <circle class="janko-knockout" cx="152.25" cy="338.97" r="4.80" fill="#FFFFFF"/>
    <text class="janko-digit" x="152.25" y="341.83" font-weight="700" font-size="5.8pt" fill="#111111">B</text>
    <circle class="janko-knockout" cx="161.85" cy="338.97" r="4.80" fill="#FFFFFF"/>
    <text class="janko-digit" x="161.85" y="341.83" font-weight="700" font-size="5.8pt" fill="#111111">7</text>
    <circle class="janko-knockout" cx="175.67" cy="353.97" r="4.80" fill="#FFFFFF"/>
    <text class="janko-digit" x="175.67" y="356.83" font-weight="800" font-size="5.8pt" fill="#111111">0</text>
    <circle class="janko-knockout" cx="185.83" cy="368.97" r="4.80" fill="#FFFFFF"/>
    <text class="janko-digit" x="185.83" y="371.83" font-weight="700" font-size="5.8pt" fill="#111111">B</text>
    <circle class="janko-knockout" cx="195.98" cy="353.97" r="4.80" fill="#FFFFFF"/>
    <text class="janko-digit" x="195.98" y="356.83" font-weight="800" font-size="5.8pt" fill="#111111">0</text>
    <circle class="janko-knockout" cx="195.98" cy="293.97" r="4.80" fill="#FFFFFF"/>
    <text class="janko-digit" x="195.98" y="296.83" font-weight="800" font-size="5.8pt" fill="#111111">4</text>
    <circle class="janko-knockout" cx="206.14" cy="293.97" r="4.80" fill="#FFFFFF"/>
    <text class="janko-digit" x="206.14" y="296.83" font-weight="800" font-size="5.8pt" fill="#111111">2</text>
    <circle class="janko-knockout" cx="216.29" cy="293.97" r="4.80" fill="#FFFFFF"/>
    <text class="janko-digit" x="216.29" y="296.83" font-weight="800" font-size="5.8pt" fill="#111111">4</text>
    <circle class="janko-knockout" cx="226.45" cy="353.97" r="4.80" fill="#FFFFFF"/>
    <text class="janko-digit" x="226.45" y="356.83" font-weight="800" font-size="5.8pt" fill="#111111">4</text>
    <circle class="janko-knockout" cx="236.61" cy="353.97" r="4.80" fill="#FFFFFF"/>
    <text class="janko-digit" x="236.61" y="356.83" font-weight="800" font-size="5.8pt" fill="#111111">6</text>
    <circle class="janko-knockout" cx="236.61" cy="308.97" r="4.80" fill="#FFFFFF"/>
    <text class="janko-digit" x="236.61" y="311.83" font-weight="700" font-size="5.8pt" fill="#111111">9</text>
    <circle class="janko-knockout" cx="246.76" cy="338.97" r="4.80" fill="#FFFFFF"/>
    <text class="janko-digit" x="246.76" y="341.83" font-weight="700" font-size="5.8pt" fill="#111111">7</text>
    <circle class="janko-knockout" cx="256.92" cy="323.97" r="4.80" fill="#FFFFFF"/>
    <text class="janko-digit" x="256.92" y="326.83" font-weight="800" font-size="5.8pt" fill="#111111">0</text>
    <circle class="janko-knockout" cx="256.92" cy="338.97" r="4.80" fill="#FFFFFF"/>
    <text class="janko-digit" x="256.92" y="341.83" font-weight="700" font-size="5.8pt" fill="#111111">9</text>
    <circle class="janko-knockout" cx="267.07" cy="338.97" r="4.80" fill="#FFFFFF"/>
    <text class="janko-digit" x="267.07" y="341.83" font-weight="700" font-size="5.8pt" fill="#111111">B</text>
    <circle class="janko-knockout" cx="277.23" cy="323.97" r="4.80" fill="#FFFFFF"/>
    <text class="janko-digit" x="277.23" y="326.83" font-weight="800" font-size="5.8pt" fill="#111111">0</text>
    <circle class="janko-knockout" cx="277.23" cy="293.97" r="4.80" fill="#FFFFFF"/>
    <text class="janko-digit" x="277.23" y="296.83" font-weight="800" font-size="5.8pt" fill="#111111">4</text>
    <circle class="janko-knockout" cx="287.38" cy="338.97" r="4.80" fill="#FFFFFF"/>
    <text class="janko-digit" x="287.38" y="341.83" font-weight="700" font-size="5.8pt" fill="#111111">9</text>
    <circle class="janko-knockout" cx="309.54" cy="353.97" r="4.80" fill="#FFFFFF"/>
    <text class="janko-digit" x="309.54" y="356.83" font-weight="800" font-size="5.8pt" fill="#111111">2</text>
    <circle class="janko-knockout" cx="319.70" cy="338.97" r="4.80" fill="#FFFFFF"/>
    <text class="janko-digit" x="319.70" y="341.83" font-weight="700" font-size="5.8pt" fill="#111111">1</text>
    <circle class="janko-knockout" cx="329.85" cy="353.97" r="4.80" fill="#FFFFFF"/>
    <text class="janko-digit" x="329.85" y="356.83" font-weight="800" font-size="5.8pt" fill="#111111">2</text>
    <circle class="janko-knockout" cx="329.85" cy="293.97" r="4.80" fill="#FFFFFF"/>
    <text class="janko-digit" x="329.85" y="296.83" font-weight="800" font-size="5.8pt" fill="#111111">6</text>
    <circle class="janko-knockout" cx="340.01" cy="293.97" r="4.80" fill="#FFFFFF"/>
    <text class="janko-digit" x="340.01" y="296.83" font-weight="800" font-size="5.8pt" fill="#111111">4</text>
    <circle class="janko-knockout" cx="350.16" cy="293.97" r="4.80" fill="#FFFFFF"/>
    <text class="janko-digit" x="350.16" y="296.83" font-weight="800" font-size="5.8pt" fill="#111111">6</text>
    <circle class="janko-knockout" cx="360.32" cy="338.97" r="4.80" fill="#FFFFFF"/>
    <text class="janko-digit" x="360.32" y="341.83" font-weight="700" font-size="5.8pt" fill="#111111">9</text>
    <circle class="janko-knockout" cx="370.48" cy="293.97" r="4.80" fill="#FFFFFF"/>
    <text class="janko-digit" x="370.48" y="296.83" font-weight="800" font-size="5.8pt" fill="#111111">2</text>
    <circle class="janko-knockout" cx="370.48" cy="338.97" r="4.80" fill="#FFFFFF"/>
    <text class="janko-digit" x="370.48" y="341.83" font-weight="700" font-size="5.8pt" fill="#111111">B</text>
    <circle class="janko-knockout" cx="380.63" cy="323.97" r="4.80" fill="#FFFFFF"/>
    <text class="janko-digit" x="380.63" y="326.83" font-weight="800" font-size="5.8pt" fill="#111111">0</text>
    <circle class="janko-knockout" cx="390.79" cy="323.97" r="4.80" fill="#FFFFFF"/>
    <text class="janko-digit" x="390.79" y="326.83" font-weight="800" font-size="5.8pt" fill="#111111">2</text>
    <circle class="janko-knockout" cx="390.79" cy="278.97" r="4.80" fill="#FFFFFF"/>
    <text class="janko-digit" x="390.79" y="281.83" font-weight="700" font-size="5.8pt" fill="#111111">9</text>
    <circle class="janko-knockout" cx="400.94" cy="323.97" r="4.80" fill="#FFFFFF"/>
    <text class="janko-digit" x="400.94" y="326.83" font-weight="800" font-size="5.8pt" fill="#111111">4</text>
    <circle class="janko-knockout" cx="411.10" cy="293.97" r="4.80" fill="#FFFFFF"/>
    <text class="janko-digit" x="411.10" y="296.83" font-weight="800" font-size="5.8pt" fill="#111111">0</text>
    <circle class="janko-knockout" cx="411.10" cy="323.97" r="4.80" fill="#FFFFFF"/>
    <text class="janko-digit" x="411.10" y="326.83" font-weight="800" font-size="5.8pt" fill="#111111">6</text>
    <circle class="janko-knockout" cx="421.25" cy="323.97" r="4.80" fill="#FFFFFF"/>
    <text class="janko-digit" x="421.25" y="326.83" font-weight="800" font-size="5.8pt" fill="#111111">2</text>
    <circle class="janko-knockout" cx="443.41" cy="308.97" r="4.80" fill="#FFFFFF"/>
    <text class="janko-digit" x="443.41" y="311.83" font-weight="700" font-size="5.8pt" fill="#111111">7</text>
    <circle class="janko-knockout" cx="453.57" cy="323.97" r="4.80" fill="#FFFFFF"/>
    <text class="janko-digit" x="453.57" y="326.83" font-weight="800" font-size="5.8pt" fill="#111111">6</text>
    <circle class="janko-knockout" cx="473.72" cy="308.97" r="4.80" fill="#FFFFFF"/>
    <text class="janko-digit" x="473.72" y="311.83" font-weight="700" font-size="5.8pt" fill="#111111">7</text>
    <circle class="janko-knockout" cx="463.72" cy="308.97" r="4.80" fill="#FFFFFF"/>
    <text class="janko-digit" x="463.72" y="311.83" font-weight="700" font-size="5.8pt" fill="#111111">B</text>
    <circle class="janko-knockout" cx="474.72" cy="323.97" r="4.80" fill="#FFFFFF"/>
    <text class="janko-digit" x="474.72" y="326.83" font-weight="800" font-size="5.8pt" fill="#111111">2</text>
    <circle class="janko-knockout" cx="484.03" cy="338.97" r="4.80" fill="#FFFFFF"/>
    <text class="janko-digit" x="484.03" y="341.83" font-weight="700" font-size="5.8pt" fill="#111111">B</text>
    <circle class="janko-knockout" cx="494.19" cy="323.97" r="4.80" fill="#FFFFFF"/>
    <text class="janko-digit" x="494.19" y="326.83" font-weight="800" font-size="5.8pt" fill="#111111">2</text>
    <circle class="janko-knockout" cx="494.19" cy="308.97" r="4.80" fill="#FFFFFF"/>
    <text class="janko-digit" x="494.19" y="311.83" font-weight="700" font-size="5.8pt" fill="#111111">7</text>
    <circle class="janko-knockout" cx="504.35" cy="338.97" r="4.80" fill="#FFFFFF"/>
    <text class="janko-digit" x="504.35" y="341.83" font-weight="700" font-size="5.8pt" fill="#111111">7</text>
    <circle class="janko-knockout" cx="504.35" cy="308.97" r="4.80" fill="#FFFFFF"/>
    <text class="janko-digit" x="504.35" y="311.83" font-weight="700" font-size="5.8pt" fill="#111111">B</text>
    <circle class="janko-knockout" cx="514.50" cy="293.97" r="4.80" fill="#FFFFFF"/>
    <text class="janko-digit" x="514.50" y="296.83" font-weight="800" font-size="5.8pt" fill="#111111">2</text>
    <circle class="janko-knockout" cx="514.50" cy="338.97" r="4.80" fill="#FFFFFF"/>
    <text class="janko-digit" x="514.50" y="341.83" font-weight="700" font-size="5.8pt" fill="#111111">B</text>
    <circle class="janko-knockout" cx="524.66" cy="353.97" r="4.80" fill="#FFFFFF"/>
    <text class="janko-digit" x="524.66" y="356.83" font-weight="800" font-size="5.8pt" fill="#111111">2</text>
    <circle class="janko-knockout" cx="524.66" cy="278.97" r="4.80" fill="#FFFFFF"/>
    <text class="janko-digit" x="524.66" y="281.83" font-weight="700" font-size="5.8pt" fill="#111111">7</text>
    <circle class="janko-knockout" cx="534.81" cy="293.97" r="4.80" fill="#FFFFFF"/>
    <text class="janko-digit" x="534.81" y="296.83" font-weight="800" font-size="5.8pt" fill="#111111">2</text>
    <circle class="janko-knockout" cx="534.81" cy="338.97" r="4.80" fill="#FFFFFF"/>
    <text class="janko-digit" x="534.81" y="341.83" font-weight="700" font-size="5.8pt" fill="#111111">7</text>
    <circle class="janko-knockout" cx="544.97" cy="278.97" r="4.80" fill="#FFFFFF"/>
    <text class="janko-digit" x="544.97" y="281.83" font-weight="700" font-size="5.8pt" fill="#111111">7</text>
    <circle class="janko-knockout" cx="544.97" cy="368.97" r="4.80" fill="#FFFFFF"/>
    <text class="janko-digit" x="544.97" y="371.83" font-weight="700" font-size="5.8pt" fill="#111111">B</text>
    <circle class="janko-knockout" cx="555.12" cy="353.97" r="4.80" fill="#FFFFFF"/>
    <text class="janko-digit" x="555.12" y="356.83" font-weight="800" font-size="5.8pt" fill="#111111">2</text>
    <circle class="janko-knockout" cx="555.12" cy="278.97" r="4.80" fill="#FFFFFF"/>
    <text class="janko-digit" x="555.12" y="281.83" font-weight="700" font-size="5.8pt" fill="#111111">9</text>
  </g>
  </g>
  </g>
</svg>