<svg xmlns="http://www.w3.org/2000/svg" viewBox="429.41 290.63 149.87 198.00" width="149.87pt" height="198.00pt" style="background:#FFFFFF;">
  <defs>
    <style>
      .janko-title { font-family: "Century Schoolbook", "Baskerville", "Liberation Serif", "DejaVu Serif", "Times New Roman", Georgia, serif; font-weight: 600; font-size: 11pt; letter-spacing: 0.3px; fill: #111111; }
      .janko-subtitle { font-family: "Century Schoolbook", "Baskerville", "Liberation Serif", "DejaVu Serif", "Times New Roman", Georgia, serif; font-style: italic; font-size: 8.5pt; fill: #333333; }
      .janko-meta { font-family: "Century Schoolbook", "Baskerville", "Liberation Serif", "DejaVu Serif", "Times New Roman", Georgia, serif; font-style: italic; font-size: 8pt; fill: #222222; }
      .janko-measure-num { font-family: "Century Schoolbook", "Baskerville", "Liberation Serif", "DejaVu Serif", "Times New Roman", Georgia, serif; font-style: italic; font-size: 8.5pt; fill: #444444; font-weight: bold; }
      .janko-octave-label { font-family: "DejaVu Sans Mono", monospace; font-size: 7.5pt; font-weight: bold; fill: #6B7280; }
      .janko-hand-label { font-family: "Century Schoolbook", "Baskerville", "Liberation Serif", "DejaVu Serif", "Times New Roman", Georgia, serif; font-style: italic; font-size: 8pt; fill: #555555; }
      .janko-ts-num { font-family: "Century Schoolbook", "Baskerville", "Liberation Serif", "DejaVu Serif", "Times New Roman", Georgia, serif; font-weight: bold; font-size: 14pt; fill: #111111; text-anchor: middle; }
      .janko-caption { font-family: "Century Schoolbook", "Baskerville", "Liberation Serif", "DejaVu Serif", "Times New Roman", Georgia, serif; font-weight: 600; font-size: 8pt; fill: #111827; }
      .janko-caption-sub { font-family: "Century Schoolbook", "Baskerville", "Liberation Serif", "DejaVu Serif", "Times New Roman", Georgia, serif; font-style: italic; font-size: 7.5pt; fill: #4B5563; }
      .janko-digit { font-family: "URW Gothic", "Century Gothic", "ITC Avant Garde Gothic", "Avant Garde", sans-serif; text-anchor: middle; font-weight: bold; }
    </style>
  </defs>
  <rect x="429.41" y="290.63" width="149.87" height="198.00" fill="#FFFFFF"/>
    <text x="435.41" y="301.13" class="janko-caption" font-size="7.00pt">m. 8</text>
    <text x="435.41" y="310.13" class="janko-caption" font-size="7.00pt">16th spacing stress test</text>
  <g class="janko-crop-body">
  <g id="system-2">
    <text class="janko-measure-num" x="33.80" y="316.63">5</text>

  <g class="janko-staff-lines">
    <line x1="35.80" y1="346.63" x2="571.28" y2="346.63" stroke="#1E293B" stroke-width="0.50"/>
    <line x1="35.80" y1="462.63" x2="571.28" y2="462.63" stroke="#1E293B" stroke-width="0.50"/>
    <line x1="35.80" y1="376.63" x2="571.28" y2="376.63" stroke="#1E293B" stroke-width="0.50"/>
    <line x1="35.80" y1="432.63" x2="571.28" y2="432.63" stroke="#1E293B" stroke-width="0.50"/>
  </g>
  <g class="janko-beat-grid">
    <line class="janko-beat-line" x1="82.42" y1="334.63" x2="82.42" y2="388.63" stroke="#9CA3AF" stroke-width="0.70" stroke-dasharray="2,3"/>
    <line class="janko-beat-line" x1="82.42" y1="420.63" x2="82.42" y2="474.63" stroke="#9CA3AF" stroke-width="0.70" stroke-dasharray="2,3"/>
    <line class="janko-beat-line" x1="123.05" y1="334.63" x2="123.05" y2="388.63" stroke="#9CA3AF" stroke-width="0.70" stroke-dasharray="2,3"/>
    <line class="janko-beat-line" x1="123.05" y1="420.63" x2="123.05" y2="474.63" stroke="#9CA3AF" stroke-width="0.70" stroke-dasharray="2,3"/>
    <line class="janko-beat-line" x1="216.29" y1="334.63" x2="216.29" y2="388.63" stroke="#9CA3AF" stroke-width="0.70" stroke-dasharray="2,3"/>
    <line class="janko-beat-line" x1="216.29" y1="420.63" x2="216.29" y2="474.63" stroke="#9CA3AF" stroke-width="0.70" stroke-dasharray="2,3"/>
    <line class="janko-beat-line" x1="256.92" y1="334.63" x2="256.92" y2="388.63" stroke="#9CA3AF" stroke-width="0.70" stroke-dasharray="2,3"/>
    <line class="janko-beat-line" x1="256.92" y1="420.63" x2="256.92" y2="474.63" stroke="#9CA3AF" stroke-width="0.70" stroke-dasharray="2,3"/>
    <line class="janko-beat-line" x1="350.16" y1="334.63" x2="350.16" y2="388.63" stroke="#9CA3AF" stroke-width="0.70" stroke-dasharray="2,3"/>
    <line class="janko-beat-line" x1="350.16" y1="420.63" x2="350.16" y2="474.63" stroke="#9CA3AF" stroke-width="0.70" stroke-dasharray="2,3"/>
    <line class="janko-beat-line" x1="390.79" y1="334.63" x2="390.79" y2="388.63" stroke="#9CA3AF" stroke-width="0.70" stroke-dasharray="2,3"/>
    <line class="janko-beat-line" x1="390.79" y1="420.63" x2="390.79" y2="474.63" stroke="#9CA3AF" stroke-width="0.70" stroke-dasharray="2,3"/>
    <line class="janko-beat-line" x1="484.03" y1="334.63" x2="484.03" y2="388.63" stroke="#9CA3AF" stroke-width="0.70" stroke-dasharray="2,3"/>
    <line class="janko-beat-line" x1="484.03" y1="420.63" x2="484.03" y2="474.63" stroke="#9CA3AF" stroke-width="0.70" stroke-dasharray="2,3"/>
    <line class="janko-beat-line" x1="524.66" y1="334.63" x2="524.66" y2="388.63" stroke="#9CA3AF" stroke-width="0.70" stroke-dasharray="2,3"/>
    <line class="janko-beat-line" x1="524.66" y1="420.63" x2="524.66" y2="474.63" stroke="#9CA3AF" stroke-width="0.70" stroke-dasharray="2,3"/>
  </g>
  <g class="janko-barlines">
    <line class="janko-barline" x1="169.67" y1="334.63" x2="169.67" y2="388.63" stroke="#111111" stroke-width="0.60"/>
    <line class="janko-barline" x1="169.67" y1="420.63" x2="169.67" y2="474.63" stroke="#111111" stroke-width="0.60"/>
    <line class="janko-barline" x1="303.54" y1="334.63" x2="303.54" y2="388.63" stroke="#111111" stroke-width="0.60"/>
    <line class="janko-barline" x1="303.54" y1="420.63" x2="303.54" y2="474.63" stroke="#111111" stroke-width="0.60"/>
    <line class="janko-barline" x1="437.41" y1="334.63" x2="437.41" y2="388.63" stroke="#111111" stroke-width="0.60"/>
    <line class="janko-barline" x1="437.41" y1="420.63" x2="437.41" y2="474.63" stroke="#111111" stroke-width="0.60"/>
  </g>
  <g class="janko-notes">
  <g class="janko-beam-group">
    <line class="janko-stem" x1="41.80" y1="450.13" x2="41.80" y2="439.13" stroke="#111111" stroke-width="0.90"/>
    <line class="janko-stem" x1="51.96" y1="450.13" x2="51.96" y2="439.13" stroke="#111111" stroke-width="0.90"/>
    <line class="janko-beam" x1="41.80" y1="439.13" x2="51.96" y2="439.13" stroke="#111111" stroke-width="1.80" stroke-linecap="butt"/>
    <line class="janko-beam-secondary" x1="41.80" y1="442.53" x2="51.96" y2="442.53" stroke="#111111" stroke-width="1.80" stroke-linecap="butt"/>
  </g>
  <g class="janko-beam-group">
    <line class="janko-stem" x1="62.11" y1="349.13" x2="62.11" y2="338.13" stroke="#111111" stroke-width="0.90"/>
    <line class="janko-stem" x1="72.27" y1="349.13" x2="72.27" y2="338.13" stroke="#111111" stroke-width="0.90"/>
    <line class="janko-beam" x1="62.11" y1="338.13" x2="72.27" y2="338.13" stroke="#111111" stroke-width="1.80" stroke-linecap="butt"/>
    <line class="janko-beam-secondary" x1="62.11" y1="341.53" x2="72.27" y2="341.53" stroke="#111111" stroke-width="1.80" stroke-linecap="butt"/>
  </g>
  <g class="janko-beam-group">
    <line class="janko-stem" x1="82.42" y1="349.13" x2="82.42" y2="338.13" stroke="#111111" stroke-width="0.90"/>
    <line class="janko-stem" x1="102.73" y1="364.13" x2="102.73" y2="342.60" stroke="#111111" stroke-width="0.90"/>
    <line class="janko-beam" x1="82.42" y1="338.13" x2="102.73" y2="342.60" stroke="#111111" stroke-width="1.80" stroke-linecap="butt"/>
  </g>
  <g class="janko-beam-group">
    <line class="janko-stem" x1="92.58" y1="445.13" x2="92.58" y2="456.13" stroke="#111111" stroke-width="0.90"/>
    <line class="janko-stem" x1="102.73" y1="445.13" x2="102.73" y2="456.13" stroke="#111111" stroke-width="0.90"/>
    <line class="janko-stem" x1="112.89" y1="445.13" x2="112.89" y2="456.13" stroke="#111111" stroke-width="0.90"/>
    <line class="janko-beam" x1="92.58" y1="456.13" x2="112.89" y2="456.13" stroke="#111111" stroke-width="1.80" stroke-linecap="butt"/>
    <line class="janko-beam-secondary" x1="92.58" y1="452.73" x2="112.89" y2="452.73" stroke="#111111" stroke-width="1.80" stroke-linecap="butt"/>
  </g>
  <g class="janko-beam-group">
    <line class="janko-stem" x1="117.55" y1="430.13" x2="117.55" y2="449.85" stroke="#111111" stroke-width="0.90"/>
    <line class="janko-stem" x1="138.15" y1="430.13" x2="138.15" y2="449.85" stroke="#111111" stroke-width="0.90"/>
    <line class="janko-stem" x1="147.75" y1="430.13" x2="147.75" y2="449.85" stroke="#111111" stroke-width="0.90"/>
    <line class="janko-stem" x1="157.35" y1="430.13" x2="157.35" y2="449.85" stroke="#111111" stroke-width="0.90"/>
    <line class="janko-beam" x1="117.55" y1="449.85" x2="157.35" y2="449.85" stroke="#111111" stroke-width="1.80" stroke-linecap="butt"/>
    <line class="janko-beam-secondary" x1="117.55" y1="446.45" x2="157.35" y2="446.45" stroke="#111111" stroke-width="1.80" stroke-linecap="butt"/>
  </g>
  <g class="janko-beam-group">
    <line class="janko-stem" x1="175.67" y1="445.13" x2="175.67" y2="468.90" stroke="#111111" stroke-width="0.90"/>
    <line class="janko-stem" x1="185.83" y1="460.13" x2="185.83" y2="471.13" stroke="#111111" stroke-width="0.90"/>
    <line class="janko-beam" x1="175.67" y1="468.90" x2="185.83" y2="471.13" stroke="#111111" stroke-width="1.80" stroke-linecap="butt"/>
    <line class="janko-beam-secondary" x1="175.67" y1="465.50" x2="185.83" y2="467.73" stroke="#111111" stroke-width="1.80" stroke-linecap="butt"/>
  </g>
  <g class="janko-beam-group">
    <line class="janko-stem" x1="195.98" y1="349.13" x2="195.98" y2="338.13" stroke="#111111" stroke-width="0.90"/>
    <line class="janko-stem" x1="206.14" y1="349.13" x2="206.14" y2="338.13" stroke="#111111" stroke-width="0.90"/>
    <line class="janko-beam" x1="195.98" y1="338.13" x2="206.14" y2="338.13" stroke="#111111" stroke-width="1.80" stroke-linecap="butt"/>
    <line class="janko-beam-secondary" x1="195.98" y1="341.53" x2="206.14" y2="341.53" stroke="#111111" stroke-width="1.80" stroke-linecap="butt"/>
  </g>
  <g class="janko-beam-group">
    <line class="janko-stem" x1="216.29" y1="349.13" x2="216.29" y2="338.13" stroke="#111111" stroke-width="0.90"/>
    <line class="janko-stem" x1="236.61" y1="364.13" x2="236.61" y2="342.60" stroke="#111111" stroke-width="0.90"/>
    <line class="janko-beam" x1="216.29" y1="338.13" x2="236.61" y2="342.60" stroke="#111111" stroke-width="1.80" stroke-linecap="butt"/>
  </g>
  <g class="janko-beam-group">
    <line class="janko-stem" x1="226.45" y1="445.13" x2="226.45" y2="458.36" stroke="#111111" stroke-width="0.90"/>
    <line class="janko-stem" x1="236.61" y1="445.13" x2="236.61" y2="456.13" stroke="#111111" stroke-width="0.90"/>
    <line class="janko-stem" x1="246.76" y1="430.13" x2="246.76" y2="453.90" stroke="#111111" stroke-width="0.90"/>
    <line class="janko-beam" x1="226.45" y1="458.36" x2="246.76" y2="453.90" stroke="#111111" stroke-width="1.80" stroke-linecap="butt"/>
    <line class="janko-beam-secondary" x1="226.45" y1="454.96" x2="246.76" y2="450.50" stroke="#111111" stroke-width="1.80" stroke-linecap="butt"/>
  </g>
  <g class="janko-beam-group">
    <line class="janko-stem" x1="256.92" y1="379.13" x2="256.92" y2="342.60" stroke="#111111" stroke-width="0.90"/>
    <line class="janko-stem" x1="277.23" y1="349.13" x2="277.23" y2="338.13" stroke="#111111" stroke-width="0.90"/>
    <line class="janko-beam" x1="256.92" y1="342.60" x2="277.23" y2="338.13" stroke="#111111" stroke-width="1.80" stroke-linecap="butt"/>
  </g>
  <g class="janko-beam-group">
    <line class="janko-stem" x1="256.92" y1="430.13" x2="256.92" y2="441.13" stroke="#111111" stroke-width="0.90"/>
    <line class="janko-stem" x1="267.07" y1="430.13" x2="267.07" y2="441.13" stroke="#111111" stroke-width="0.90"/>
    <line class="janko-beam" x1="256.92" y1="441.13" x2="267.07" y2="441.13" stroke="#111111" stroke-width="1.80" stroke-linecap="butt"/>
    <line class="janko-beam-secondary" x1="256.92" y1="437.73" x2="267.07" y2="437.73" stroke="#111111" stroke-width="1.80" stroke-linecap="butt"/>
  </g>
  <g class="janko-beam-group">
    <line class="janko-stem" x1="309.54" y1="445.13" x2="309.54" y2="456.13" stroke="#111111" stroke-width="0.90"/>
    <line class="janko-stem" x1="319.70" y1="430.13" x2="319.70" y2="453.90" stroke="#111111" stroke-width="0.90"/>
    <line class="janko-beam" x1="309.54" y1="456.13" x2="319.70" y2="453.90" stroke="#111111" stroke-width="1.80" stroke-linecap="butt"/>
    <line class="janko-beam-secondary" x1="309.54" y1="452.73" x2="319.70" y2="450.50" stroke="#111111" stroke-width="1.80" stroke-linecap="butt"/>
  </g>
  <g class="janko-beam-group">
    <line class="janko-stem" x1="329.85" y1="349.13" x2="329.85" y2="338.13" stroke="#111111" stroke-width="0.90"/>
    <line class="janko-stem" x1="340.01" y1="349.13" x2="340.01" y2="338.13" stroke="#111111" stroke-width="0.90"/>
    <line class="janko-beam" x1="329.85" y1="338.13" x2="340.01" y2="338.13" stroke="#111111" stroke-width="1.80" stroke-linecap="butt"/>
    <line class="janko-beam-secondary" x1="329.85" y1="341.53" x2="340.01" y2="341.53" stroke="#111111" stroke-width="1.80" stroke-linecap="butt"/>
  </g>
  <g class="janko-beam-group">
    <line class="janko-stem" x1="350.16" y1="349.13" x2="350.16" y2="338.13" stroke="#111111" stroke-width="0.90"/>
    <line class="janko-stem" x1="370.48" y1="349.13" x2="370.48" y2="338.13" stroke="#111111" stroke-width="0.90"/>
    <line class="janko-beam" x1="350.16" y1="338.13" x2="370.48" y2="338.13" stroke="#111111" stroke-width="1.80" stroke-linecap="butt"/>
  </g>
  <g class="janko-beam-group">
    <line class="janko-stem" x1="360.32" y1="430.13" x2="360.32" y2="441.13" stroke="#111111" stroke-width="0.90"/>
    <line class="janko-stem" x1="370.48" y1="430.13" x2="370.48" y2="441.13" stroke="#111111" stroke-width="0.90"/>
    <line class="janko-beam" x1="360.32" y1="441.13" x2="370.48" y2="441.13" stroke="#111111" stroke-width="1.80" stroke-linecap="butt"/>
    <line class="janko-beam-secondary" x1="360.32" y1="437.73" x2="370.48" y2="437.73" stroke="#111111" stroke-width="1.80" stroke-linecap="butt"/>
  </g>
  <g class="janko-beam-group">
    <line class="janko-stem" x1="390.79" y1="389.13" x2="390.79" y2="400.13" stroke="#111111" stroke-width="0.90"/>
    <line class="janko-stem" x1="400.94" y1="389.13" x2="400.94" y2="400.13" stroke="#111111" stroke-width="0.90"/>
    <line class="janko-beam" x1="390.79" y1="400.13" x2="400.94" y2="400.13" stroke="#111111" stroke-width="1.80" stroke-linecap="butt"/>
    <line class="janko-beam-secondary" x1="390.79" y1="396.73" x2="400.94" y2="396.73" stroke="#111111" stroke-width="1.80" stroke-linecap="butt"/>
  </g>
  <g class="janko-beam-group">
    <line class="janko-stem" x1="443.41" y1="374.13" x2="443.41" y2="397.90" stroke="#111111" stroke-width="0.90"/>
    <line class="janko-stem" x1="453.57" y1="389.13" x2="453.57" y2="400.13" stroke="#111111" stroke-width="0.90"/>
    <line class="janko-beam" x1="443.41" y1="397.90" x2="453.57" y2="400.13" stroke="#111111" stroke-width="1.80" stroke-linecap="butt"/>
    <line class="janko-beam-secondary" x1="443.41" y1="394.50" x2="453.57" y2="396.73" stroke="#111111" stroke-width="1.80" stroke-linecap="butt"/>
  </g>
  <g class="janko-beam-group">
    <line class="janko-stem" x1="504.35" y1="430.13" x2="504.35" y2="441.13" stroke="#111111" stroke-width="0.90"/>
    <line class="janko-stem" x1="514.50" y1="430.13" x2="514.50" y2="441.13" stroke="#111111" stroke-width="0.90"/>
    <line class="janko-beam" x1="504.35" y1="441.13" x2="514.50" y2="441.13" stroke="#111111" stroke-width="1.80" stroke-linecap="butt"/>
    <line class="janko-beam-secondary" x1="504.35" y1="437.73" x2="514.50" y2="437.73" stroke="#111111" stroke-width="1.80" stroke-linecap="butt"/>
  </g>
  <g class="janko-beam-group">
    <line class="janko-stem" x1="494.19" y1="364.13" x2="494.19" y2="342.60" stroke="#111111" stroke-width="0.90"/>
    <line class="janko-stem" x1="504.35" y1="364.13" x2="504.35" y2="340.36" stroke="#111111" stroke-width="0.90"/>
    <line class="janko-stem" x1="514.50" y1="349.13" x2="514.50" y2="338.13" stroke="#111111" stroke-width="0.90"/>
    <line class="janko-beam" x1="494.19" y1="342.60" x2="514.50" y2="338.13" stroke="#111111" stroke-width="1.80" stroke-linecap="butt"/>
    <line class="janko-beam-secondary" x1="494.19" y1="346.00" x2="514.50" y2="341.53" stroke="#111111" stroke-width="1.80" stroke-linecap="butt"/>
  </g>
  <g class="janko-beam-group">
    <line class="janko-stem" x1="524.66" y1="445.13" x2="524.66" y2="471.13" stroke="#111111" stroke-width="0.90"/>
    <line class="janko-stem" x1="534.81" y1="430.13" x2="534.81" y2="471.13" stroke="#111111" stroke-width="0.90"/>
    <line class="janko-stem" x1="544.97" y1="460.13" x2="544.97" y2="471.13" stroke="#111111" stroke-width="0.90"/>
    <line class="janko-stem" x1="555.12" y1="445.13" x2="555.12" y2="471.13" stroke="#111111" stroke-width="0.90"/>
    <line class="janko-beam" x1="524.66" y1="471.13" x2="555.12" y2="471.13" stroke="#111111" stroke-width="1.80" stroke-linecap="butt"/>
    <line class="janko-beam-secondary" x1="524.66" y1="467.73" x2="555.12" y2="467.73" stroke="#111111" stroke-width="1.80" stroke-linecap="butt"/>
  </g>
  <g class="janko-beam-group">
    <line class="janko-stem" x1="524.66" y1="334.13" x2="524.66" y2="323.13" stroke="#111111" stroke-width="0.90"/>
    <line class="janko-stem" x1="534.81" y1="349.13" x2="534.81" y2="323.13" stroke="#111111" stroke-width="0.90"/>
    <line class="janko-stem" x1="544.97" y1="334.13" x2="544.97" y2="323.13" stroke="#111111" stroke-width="0.90"/>
    <line class="janko-stem" x1="555.12" y1="334.13" x2="555.12" y2="323.13" stroke="#111111" stroke-width="0.90"/>
    <line class="janko-beam" x1="524.66" y1="323.13" x2="555.12" y2="323.13" stroke="#111111" stroke-width="1.80" stroke-linecap="butt"/>
    <line class="janko-beam-secondary" x1="524.66" y1="326.53" x2="555.12" y2="326.53" stroke="#111111" stroke-width="1.80" stroke-linecap="butt"/>
  </g>
    <line class="janko-stem" x1="62.11" y1="460.13" x2="62.11" y2="471.13" stroke="#111111" stroke-width="0.90"/>
    <line class="janko-flag" data-stem-x="62.11" data-flag-index="1" x1="62.11" y1="471.13" x2="66.11" y2="470.25" stroke="#111111" stroke-width="1.10" stroke-linecap="butt" data-subdivision-style="kinetic-tab-beam"/>
    <circle class="janko-augmentation-dot" cx="54.11" cy="455.13" r="0.75" fill="#111111"/>
    <line class="janko-stem" x1="128.55" y1="420.13" x2="128.55" y2="409.13" stroke="#111111" stroke-width="0.90"/>
    <line class="janko-flag" data-stem-x="128.55" data-flag-index="1" x1="128.55" y1="409.13" x2="132.55" y2="410.01" stroke="#111111" stroke-width="1.10" stroke-linecap="butt" data-subdivision-style="kinetic-tab-beam"/>
    <line class="janko-stem" x1="147.75" y1="349.13" x2="147.75" y2="338.13" stroke="#111111" stroke-width="0.90"/>
    <line class="janko-flag" data-stem-x="147.75" data-flag-index="1" x1="147.75" y1="338.13" x2="151.75" y2="339.01" stroke="#111111" stroke-width="1.10" stroke-linecap="butt" data-subdivision-style="kinetic-tab-beam"/>
    <line class="janko-stem" x1="195.98" y1="445.13" x2="195.98" y2="456.13" stroke="#111111" stroke-width="0.90"/>
    <line class="janko-flag" data-stem-x="195.98" data-flag-index="1" x1="195.98" y1="456.13" x2="199.98" y2="455.25" stroke="#111111" stroke-width="1.10" stroke-linecap="butt" data-subdivision-style="kinetic-tab-beam"/>
    <circle class="janko-augmentation-dot" cx="187.98" cy="440.13" r="0.75" fill="#111111"/>
    <line class="janko-stem" x1="277.23" y1="389.13" x2="277.23" y2="400.13" stroke="#111111" stroke-width="0.90"/>
    <line class="janko-flag" data-stem-x="277.23" data-flag-index="1" x1="277.23" y1="400.13" x2="281.23" y2="399.25" stroke="#111111" stroke-width="1.10" stroke-linecap="butt" data-subdivision-style="kinetic-tab-beam"/>
    <line class="janko-flag" data-stem-x="277.23" data-flag-index="2" x1="277.23" y1="396.73" x2="281.23" y2="395.85" stroke="#111111" stroke-width="1.10" stroke-linecap="butt" data-subdivision-style="kinetic-tab-beam"/>
    <line class="janko-stem" x1="287.38" y1="430.13" x2="287.38" y2="441.13" stroke="#111111" stroke-width="0.90"/>
    <line class="janko-flag" data-stem-x="287.38" data-flag-index="1" x1="287.38" y1="441.13" x2="291.38" y2="440.25" stroke="#111111" stroke-width="1.10" stroke-linecap="butt" data-subdivision-style="kinetic-tab-beam"/>
    <line class="janko-flag" data-stem-x="287.38" data-flag-index="2" x1="287.38" y1="437.73" x2="291.38" y2="436.85" stroke="#111111" stroke-width="1.10" stroke-linecap="butt" data-subdivision-style="kinetic-tab-beam"/>
    <line class="janko-stem" x1="329.85" y1="445.13" x2="329.85" y2="456.13" stroke="#111111" stroke-width="0.90"/>
    <line class="janko-flag" data-stem-x="329.85" data-flag-index="1" x1="329.85" y1="456.13" x2="333.85" y2="455.25" stroke="#111111" stroke-width="1.10" stroke-linecap="butt" data-subdivision-style="kinetic-tab-beam"/>
    <circle class="janko-augmentation-dot" cx="321.85" cy="440.13" r="0.75" fill="#111111"/>
    <line class="janko-stem" x1="380.63" y1="389.13" x2="380.63" y2="400.13" stroke="#111111" stroke-width="0.90"/>
    <line class="janko-flag" data-stem-x="380.63" data-flag-index="1" x1="380.63" y1="400.13" x2="384.63" y2="399.25" stroke="#111111" stroke-width="1.10" stroke-linecap="butt" data-subdivision-style="kinetic-tab-beam"/>
    <line class="janko-flag" data-stem-x="380.63" data-flag-index="2" x1="380.63" y1="396.73" x2="384.63" y2="395.85" stroke="#111111" stroke-width="1.10" stroke-linecap="butt" data-subdivision-style="kinetic-tab-beam"/>
    <line class="janko-stem" x1="390.79" y1="334.13" x2="390.79" y2="323.13" stroke="#111111" stroke-width="0.90"/>
    <line class="janko-flag" data-stem-x="390.79" data-flag-index="1" x1="390.79" y1="323.13" x2="394.79" y2="324.01" stroke="#111111" stroke-width="1.10" stroke-linecap="butt" data-subdivision-style="kinetic-tab-beam"/>
    <line class="janko-stem" x1="411.10" y1="349.13" x2="411.10" y2="338.13" stroke="#111111" stroke-width="0.90"/>
    <line class="janko-stem" x1="411.10" y1="389.13" x2="411.10" y2="400.13" stroke="#111111" stroke-width="0.90"/>
    <line class="janko-flag" data-stem-x="411.10" data-flag-index="1" x1="411.10" y1="400.13" x2="415.10" y2="399.25" stroke="#111111" stroke-width="1.10" stroke-linecap="butt" data-subdivision-style="kinetic-tab-beam"/>
    <line class="janko-flag" data-stem-x="411.10" data-flag-index="2" x1="411.10" y1="396.73" x2="415.10" y2="395.85" stroke="#111111" stroke-width="1.10" stroke-linecap="butt" data-subdivision-style="kinetic-tab-beam"/>
    <line class="janko-stem" x1="421.25" y1="389.13" x2="421.25" y2="400.13" stroke="#111111" stroke-width="0.90"/>
    <line class="janko-flag" data-stem-x="421.25" data-flag-index="1" x1="421.25" y1="400.13" x2="425.25" y2="399.25" stroke="#111111" stroke-width="1.10" stroke-linecap="butt" data-subdivision-style="kinetic-tab-beam"/>
    <line class="janko-flag" data-stem-x="421.25" data-flag-index="2" x1="421.25" y1="396.73" x2="425.25" y2="395.85" stroke="#111111" stroke-width="1.10" stroke-linecap="butt" data-subdivision-style="kinetic-tab-beam"/>
    <line class="janko-stem" x1="458.22" y1="374.13" x2="458.22" y2="385.13" stroke="#111111" stroke-width="0.90"/>
    <line class="janko-flag" data-stem-x="458.22" data-flag-index="1" x1="458.22" y1="385.13" x2="462.22" y2="384.25" stroke="#111111" stroke-width="1.10" stroke-linecap="butt" data-subdivision-style="kinetic-tab-beam"/>
    <line class="janko-flag" data-stem-x="458.22" data-flag-index="2" x1="458.22" y1="381.73" x2="462.22" y2="380.85" stroke="#111111" stroke-width="1.10" stroke-linecap="butt" data-subdivision-style="kinetic-tab-beam"/>
    <line class="janko-stem" x1="469.22" y1="364.13" x2="469.22" y2="353.13" stroke="#111111" stroke-width="0.90"/>
    <line class="janko-flag" data-stem-x="469.22" data-flag-index="1" x1="469.22" y1="353.13" x2="473.22" y2="354.01" stroke="#111111" stroke-width="1.10" stroke-linecap="butt" data-subdivision-style="kinetic-tab-beam"/>
    <line class="janko-stem" x1="473.88" y1="389.13" x2="473.88" y2="400.13" stroke="#111111" stroke-width="0.90"/>
    <line class="janko-flag" data-stem-x="473.88" data-flag-index="1" x1="473.88" y1="400.13" x2="477.88" y2="399.25" stroke="#111111" stroke-width="1.10" stroke-linecap="butt" data-subdivision-style="kinetic-tab-beam"/>
    <line class="janko-flag" data-stem-x="473.88" data-flag-index="2" x1="473.88" y1="396.73" x2="477.88" y2="395.85" stroke="#111111" stroke-width="1.10" stroke-linecap="butt" data-subdivision-style="kinetic-tab-beam"/>
    <line class="janko-stem" x1="484.03" y1="430.13" x2="484.03" y2="441.13" stroke="#111111" stroke-width="0.90"/>
    <line class="janko-flag" data-stem-x="484.03" data-flag-index="1" x1="484.03" y1="441.13" x2="488.03" y2="440.25" stroke="#111111" stroke-width="1.10" stroke-linecap="butt" data-subdivision-style="kinetic-tab-beam"/>
    <line class="janko-flag" data-stem-x="484.03" data-flag-index="2" x1="484.03" y1="437.73" x2="488.03" y2="436.85" stroke="#111111" stroke-width="1.10" stroke-linecap="butt" data-subdivision-style="kinetic-tab-beam"/>
    <line class="janko-stem" x1="494.19" y1="389.13" x2="494.19" y2="400.13" stroke="#111111" stroke-width="0.90"/>
    <line class="janko-flag" data-stem-x="494.19" data-flag-index="1" x1="494.19" y1="400.13" x2="498.19" y2="399.25" stroke="#111111" stroke-width="1.10" stroke-linecap="butt" data-subdivision-style="kinetic-tab-beam"/>
    <line class="janko-flag" data-stem-x="494.19" data-flag-index="2" x1="494.19" y1="396.73" x2="498.19" y2="395.85" stroke="#111111" stroke-width="1.10" stroke-linecap="butt" data-subdivision-style="kinetic-tab-beam"/>
    <circle class="janko-knockout" cx="41.80" cy="455.13" r="4.80" fill="#FFFFFF"/>
    <text class="janko-digit" x="41.80" y="457.99" font-weight="700" font-size="5.8pt" fill="#111111">B</text>
    <circle class="janko-knockout" cx="51.96" cy="455.13" r="4.80" fill="#FFFFFF"/>
    <text class="janko-digit" x="51.96" y="457.99" font-weight="700" font-size="5.8pt" fill="#111111">9</text>
    <circle class="janko-knockout" cx="62.11" cy="354.13" r="4.80" fill="#FFFFFF"/>
    <text class="janko-digit" x="62.11" y="356.99" font-weight="800" font-size="5.8pt" fill="#111111">2</text>
    <circle class="janko-knockout" cx="62.11" cy="455.13" r="4.80" fill="#FFFFFF"/>
    <text class="janko-digit" x="62.11" y="457.99" font-weight="700" font-size="5.8pt" fill="#111111">B</text>
    <circle class="janko-knockout" cx="72.27" cy="354.13" r="4.80" fill="#FFFFFF"/>
    <text class="janko-digit" x="72.27" y="356.99" font-weight="800" font-size="5.8pt" fill="#111111">0</text>
    <circle class="janko-knockout" cx="82.42" cy="354.13" r="4.80" fill="#FFFFFF"/>
    <text class="janko-digit" x="82.42" y="356.99" font-weight="800" font-size="5.8pt" fill="#111111">2</text>
    <circle class="janko-knockout" cx="92.58" cy="440.13" r="4.80" fill="#FFFFFF"/>
    <text class="janko-digit" x="92.58" y="442.99" font-weight="800" font-size="5.8pt" fill="#111111">2</text>
    <circle class="janko-knockout" cx="102.73" cy="440.13" r="4.80" fill="#FFFFFF"/>
    <text class="janko-digit" x="102.73" y="442.99" font-weight="800" font-size="5.8pt" fill="#111111">4</text>
    <circle class="janko-knockout" cx="102.73" cy="369.13" r="4.80" fill="#FFFFFF"/>
    <text class="janko-digit" x="102.73" y="371.99" font-weight="700" font-size="5.8pt" fill="#111111">7</text>
    <circle class="janko-knockout" cx="112.89" cy="440.13" r="4.80" fill="#FFFFFF"/>
    <text class="janko-digit" x="112.89" y="442.99" font-weight="800" font-size="5.8pt" fill="#111111">6</text>
    <circle class="janko-knockout" cx="117.55" cy="425.13" r="4.80" fill="#FFFFFF"/>
    <text class="janko-digit" x="117.55" y="427.99" font-weight="700" font-size="5.8pt" fill="#111111">7</text>
    <circle class="janko-knockout" cx="128.55" cy="425.13" r="4.80" fill="#FFFFFF"/>
    <text class="janko-digit" x="128.55" y="427.99" font-weight="700" font-size="5.8pt" fill="#111111">B</text>
    <circle class="janko-knockout" cx="138.15" cy="425.13" r="4.80" fill="#FFFFFF"/>
    <text class="janko-digit" x="138.15" y="427.99" font-weight="700" font-size="5.8pt" fill="#111111">9</text>
    <circle class="janko-knockout" cx="147.75" cy="354.13" r="4.80" fill="#FFFFFF"/>
    <text class="janko-digit" x="147.75" y="356.99" font-weight="800" font-size="5.8pt" fill="#111111">2</text>
    <circle class="janko-knockout" cx="147.75" cy="425.13" r="4.80" fill="#FFFFFF"/>
    <text class="janko-digit" x="147.75" y="427.99" font-weight="700" font-size="5.8pt" fill="#111111">B</text>
    <circle class="janko-knockout" cx="157.35" cy="425.13" r="4.80" fill="#FFFFFF"/>
    <text class="janko-digit" x="157.35" y="427.99" font-weight="700" font-size="5.8pt" fill="#111111">7</text>
    <circle class="janko-knockout" cx="175.67" cy="440.13" r="4.80" fill="#FFFFFF"/>
    <text class="janko-digit" x="175.67" y="442.99" font-weight="800" font-size="5.8pt" fill="#111111">0</text>
    <circle class="janko-knockout" cx="185.83" cy="455.13" r="4.80" fill="#FFFFFF"/>
    <text class="janko-digit" x="185.83" y="457.99" font-weight="700" font-size="5.8pt" fill="#111111">B</text>
    <circle class="janko-knockout" cx="195.98" cy="440.13" r="4.80" fill="#FFFFFF"/>
    <text class="janko-digit" x="195.98" y="442.99" font-weight="800" font-size="5.8pt" fill="#111111">0</text>
    <circle class="janko-knockout" cx="195.98" cy="354.13" r="4.80" fill="#FFFFFF"/>
    <text class="janko-digit" x="195.98" y="356.99" font-weight="800" font-size="5.8pt" fill="#111111">4</text>
    <circle class="janko-knockout" cx="206.14" cy="354.13" r="4.80" fill="#FFFFFF"/>
    <text class="janko-digit" x="206.14" y="356.99" font-weight="800" font-size="5.8pt" fill="#111111">2</text>
    <circle class="janko-knockout" cx="216.29" cy="354.13" r="4.80" fill="#FFFFFF"/>
    <text class="janko-digit" x="216.29" y="356.99" font-weight="800" font-size="5.8pt" fill="#111111">4</text>
    <circle class="janko-knockout" cx="226.45" cy="440.13" r="4.80" fill="#FFFFFF"/>
    <text class="janko-digit" x="226.45" y="442.99" font-weight="800" font-size="5.8pt" fill="#111111">4</text>
    <circle class="janko-knockout" cx="236.61" cy="440.13" r="4.80" fill="#FFFFFF"/>
    <text class="janko-digit" x="236.61" y="442.99" font-weight="800" font-size="5.8pt" fill="#111111">6</text>
    <circle class="janko-knockout" cx="236.61" cy="369.13" r="4.80" fill="#FFFFFF"/>
    <text class="janko-digit" x="236.61" y="371.99" font-weight="700" font-size="5.8pt" fill="#111111">9</text>
    <circle class="janko-knockout" cx="246.76" cy="425.13" r="4.80" fill="#FFFFFF"/>
    <text class="janko-digit" x="246.76" y="427.99" font-weight="700" font-size="5.8pt" fill="#111111">7</text>
    <circle class="janko-knockout" cx="256.92" cy="384.13" r="4.80" fill="#FFFFFF"/>
    <text class="janko-digit" x="256.92" y="386.99" font-weight="800" font-size="5.8pt" fill="#111111">0</text>
    <circle class="janko-knockout" cx="256.92" cy="425.13" r="4.80" fill="#FFFFFF"/>
    <text class="janko-digit" x="256.92" y="427.99" font-weight="700" font-size="5.8pt" fill="#111111">9</text>
    <circle class="janko-knockout" cx="267.07" cy="425.13" r="4.80" fill="#FFFFFF"/>
    <text class="janko-digit" x="267.07" y="427.99" font-weight="700" font-size="5.8pt" fill="#111111">B</text>
    <circle class="janko-knockout" cx="277.23" cy="384.13" r="4.80" fill="#FFFFFF"/>
    <text class="janko-digit" x="277.23" y="386.99" font-weight="800" font-size="5.8pt" fill="#111111">0</text>
    <circle class="janko-knockout" cx="277.23" cy="354.13" r="4.80" fill="#FFFFFF"/>
    <text class="janko-digit" x="277.23" y="356.99" font-weight="800" font-size="5.8pt" fill="#111111">4</text>
    <circle class="janko-knockout" cx="287.38" cy="425.13" r="4.80" fill="#FFFFFF"/>
    <text class="janko-digit" x="287.38" y="427.99" font-weight="700" font-size="5.8pt" fill="#111111">9</text>
    <circle class="janko-knockout" cx="309.54" cy="440.13" r="4.80" fill="#FFFFFF"/>
    <text class="janko-digit" x="309.54" y="442.99" font-weight="800" font-size="5.8pt" fill="#111111">2</text>
    <circle class="janko-knockout" cx="319.70" cy="425.13" r="4.80" fill="#FFFFFF"/>
    <text class="janko-digit" x="319.70" y="427.99" font-weight="700" font-size="5.8pt" fill="#111111">1</text>
    <circle class="janko-knockout" cx="329.85" cy="440.13" r="4.80" fill="#FFFFFF"/>
    <text class="janko-digit" x="329.85" y="442.99" font-weight="800" font-size="5.8pt" fill="#111111">2</text>
    <circle class="janko-knockout" cx="329.85" cy="354.13" r="4.80" fill="#FFFFFF"/>
    <text class="janko-digit" x="329.85" y="356.99" font-weight="800" font-size="5.8pt" fill="#111111">6</text>
    <circle class="janko-knockout" cx="340.01" cy="354.13" r="4.80" fill="#FFFFFF"/>
    <text class="janko-digit" x="340.01" y="356.99" font-weight="800" font-size="5.8pt" fill="#111111">4</text>
    <circle class="janko-knockout" cx="350.16" cy="354.13" r="4.80" fill="#FFFFFF"/>
    <text class="janko-digit" x="350.16" y="356.99" font-weight="800" font-size="5.8pt" fill="#111111">6</text>
    <circle class="janko-knockout" cx="360.32" cy="425.13" r="4.80" fill="#FFFFFF"/>
    <text class="janko-digit" x="360.32" y="427.99" font-weight="700" font-size="5.8pt" fill="#111111">9</text>
    <circle class="janko-knockout" cx="370.48" cy="354.13" r="4.80" fill="#FFFFFF"/>
    <text class="janko-digit" x="370.48" y="356.99" font-weight="800" font-size="5.8pt" fill="#111111">2</text>
    <circle class="janko-knockout" cx="370.48" cy="425.13" r="4.80" fill="#FFFFFF"/>
    <text class="janko-digit" x="370.48" y="427.99" font-weight="700" font-size="5.8pt" fill="#111111">B</text>
    <circle class="janko-knockout" cx="380.63" cy="384.13" r="4.80" fill="#FFFFFF"/>
    <text class="janko-digit" x="380.63" y="386.99" font-weight="800" font-size="5.8pt" fill="#111111">0</text>
    <circle class="janko-knockout" cx="390.79" cy="384.13" r="4.80" fill="#FFFFFF"/>
    <text class="janko-digit" x="390.79" y="386.99" font-weight="800" font-size="5.8pt" fill="#111111">2</text>
    <circle class="janko-knockout" cx="390.79" cy="339.13" r="4.80" fill="#FFFFFF"/>
    <text class="janko-digit" x="390.79" y="341.99" font-weight="700" font-size="5.8pt" fill="#111111">9</text>
    <circle class="janko-knockout" cx="400.94" cy="384.13" r="4.80" fill="#FFFFFF"/>
    <text class="janko-digit" x="400.94" y="386.99" font-weight="800" font-size="5.8pt" fill="#111111">4</text>
    <circle class="janko-knockout" cx="411.10" cy="354.13" r="4.80" fill="#FFFFFF"/>
    <text class="janko-digit" x="411.10" y="356.99" font-weight="800" font-size="5.8pt" fill="#111111">0</text>
    <circle class="janko-knockout" cx="411.10" cy="384.13" r="4.80" fill="#FFFFFF"/>
    <text class="janko-digit" x="411.10" y="386.99" font-weight="800" font-size="5.8pt" fill="#111111">6</text>
    <circle class="janko-knockout" cx="421.25" cy="384.13" r="4.80" fill="#FFFFFF"/>
    <text class="janko-digit" x="421.25" y="386.99" font-weight="800" font-size="5.8pt" fill="#111111">2</text>
    <circle class="janko-knockout" cx="443.41" cy="369.13" r="4.80" fill="#FFFFFF"/>
    <text class="janko-digit" x="443.41" y="371.99" font-weight="700" font-size="5.8pt" fill="#111111">7</text>
    <circle class="janko-knockout" cx="453.57" cy="384.13" r="4.80" fill="#FFFFFF"/>
    <text class="janko-digit" x="453.57" y="386.99" font-weight="800" font-size="5.8pt" fill="#111111">6</text>
    <circle class="janko-knockout" cx="458.22" cy="369.13" r="4.80" fill="#FFFFFF"/>
    <text class="janko-digit" x="458.22" y="371.99" font-weight="700" font-size="5.8pt" fill="#111111">7</text>
    <circle class="janko-knockout" cx="469.22" cy="369.13" r="4.80" fill="#FFFFFF"/>
    <text class="janko-digit" x="469.22" y="371.99" font-weight="700" font-size="5.8pt" fill="#111111">B</text>
    <circle class="janko-knockout" cx="473.88" cy="384.13" r="4.80" fill="#FFFFFF"/>
    <text class="janko-digit" x="473.88" y="386.99" font-weight="800" font-size="5.8pt" fill="#111111">2</text>
    <circle class="janko-knockout" cx="484.03" cy="425.13" r="4.80" fill="#FFFFFF"/>
    <text class="janko-digit" x="484.03" y="427.99" font-weight="700" font-size="5.8pt" fill="#111111">B</text>
    <circle class="janko-knockout" cx="494.19" cy="384.13" r="4.80" fill="#FFFFFF"/>
    <text class="janko-digit" x="494.19" y="386.99" font-weight="800" font-size="5.8pt" fill="#111111">2</text>
    <circle class="janko-knockout" cx="494.19" cy="369.13" r="4.80" fill="#FFFFFF"/>
    <text class="janko-digit" x="494.19" y="371.99" font-weight="700" font-size="5.8pt" fill="#111111">7</text>
    <circle class="janko-knockout" cx="504.35" cy="425.13" r="4.80" fill="#FFFFFF"/>
    <text class="janko-digit" x="504.35" y="427.99" font-weight="700" font-size="5.8pt" fill="#111111">7</text>
    <circle class="janko-knockout" cx="504.35" cy="369.13" r="4.80" fill="#FFFFFF"/>
    <text class="janko-digit" x="504.35" y="371.99" font-weight="700" font-size="5.8pt" fill="#111111">B</text>
    <circle class="janko-knockout" cx="514.50" cy="354.13" r="4.80" fill="#FFFFFF"/>
    <text class="janko-digit" x="514.50" y="356.99" font-weight="800" font-size="5.8pt" fill="#111111">2</text>
    <circle class="janko-knockout" cx="514.50" cy="425.13" r="4.80" fill="#FFFFFF"/>
    <text class="janko-digit" x="514.50" y="427.99" font-weight="700" font-size="5.8pt" fill="#111111">B</text>
    <circle class="janko-knockout" cx="524.66" cy="440.13" r="4.80" fill="#FFFFFF"/>
    <text class="janko-digit" x="524.66" y="442.99" font-weight="800" font-size="5.8pt" fill="#111111">2</text>
    <circle class="janko-knockout" cx="524.66" cy="339.13" r="4.80" fill="#FFFFFF"/>
    <text class="janko-digit" x="524.66" y="341.99" font-weight="700" font-size="5.8pt" fill="#111111">7</text>
    <circle class="janko-knockout" cx="534.81" cy="354.13" r="4.80" fill="#FFFFFF"/>
    <text class="janko-digit" x="534.81" y="356.99" font-weight="800" font-size="5.8pt" fill="#111111">2</text>
    <circle class="janko-knockout" cx="534.81" cy="425.13" r="4.80" fill="#FFFFFF"/>
    <text class="janko-digit" x="534.81" y="427.99" font-weight="700" font-size="5.8pt" fill="#111111">7</text>
    <circle class="janko-knockout" cx="544.97" cy="339.13" r="4.80" fill="#FFFFFF"/>
    <text class="janko-digit" x="544.97" y="341.99" font-weight="700" font-size="5.8pt" fill="#111111">7</text>
    <circle class="janko-knockout" cx="544.97" cy="455.13" r="4.80" fill="#FFFFFF"/>
    <text class="janko-digit" x="544.97" y="457.99" font-weight="700" font-size="5.8pt" fill="#111111">B</text>
    <circle class="janko-knockout" cx="555.12" cy="440.13" r="4.80" fill="#FFFFFF"/>
    <text class="janko-digit" x="555.12" y="442.99" font-weight="800" font-size="5.8pt" fill="#111111">2</text>
    <circle class="janko-knockout" cx="555.12" cy="339.13" r="4.80" fill="#FFFFFF"/>
    <text class="janko-digit" x="555.12" y="341.99" font-weight="700" font-size="5.8pt" fill="#111111">9</text>
  </g>
  </g>
  </g>
</svg>